/* XPM */
static char *_52d8e61e7a94d0fef754fea21aeded1H3FEvRgtimfoKrVV[] = {
/* columns rows colors chars-per-pixel */
"64 64 231 2 ",
"   c None",
".  c #170E0A",
"X  c #1B0C06",
"o  c #1D1006",
"O  c #1E1009",
"+  c #24150A",
"@  c #2E1B0B",
"#  c #271708",
"$  c #321D0C",
"%  c #361C0A",
"&  c #2B1A12",
"*  c #271712",
"=  c #301B12",
"-  c #200A07",
";  c #2C220C",
":  c #33220D",
">  c #3A230B",
",  c #3D290D",
"<  c #392507",
"1  c #342113",
"2  c #3C2512",
"3  c #3D2A12",
"4  c #362816",
"5  c #3E3115",
"6  c #42250E",
"7  c #432A0D",
"8  c #4D2D0A",
"9  c #4B370E",
"0  c #53350B",
"q  c #442C13",
"w  c #4B2D14",
"e  c #452C17",
"r  c #443413",
"t  c #4C3413",
"y  c #44331B",
"u  c #4B331A",
"i  c #4D3A18",
"p  c #533415",
"a  c #533A15",
"s  c #593C14",
"d  c #53341D",
"f  c #523E1B",
"g  c #5B3D1C",
"h  c #59351C",
"j  c #522F15",
"k  c #653C1D",
"l  c #4C3B27",
"z  c #543C23",
"x  c #533C27",
"c  c #623E21",
"v  c #5A431D",
"b  c #56431A",
"n  c #4F411E",
"m  c #634B1C",
"M  c #66451B",
"N  c #77581E",
"B  c #6B531F",
"V  c #544324",
"C  c #5C4623",
"Z  c #5C4C2C",
"A  c #58472A",
"S  c #574637",
"D  c #574926",
"F  c #614524",
"G  c #634D25",
"H  c #654C2C",
"J  c #6A4E2C",
"K  c #684828",
"L  c #744E26",
"P  c #6B542B",
"I  c #6B5728",
"U  c #72562B",
"Y  c #73592B",
"T  c #785B2B",
"R  c #634D33",
"E  c #684C36",
"W  c #695536",
"Q  c #745C32",
"!  c #7C5F32",
"~  c #745837",
"^  c #7B6333",
"/  c #7B623C",
"(  c #75623A",
")  c #7A6023",
"_  c #5A4D40",
"`  c #6E5949",
"'  c #745D44",
"]  c #7D6443",
"[  c #756543",
"{  c #756A53",
"}  c #81672F",
"|  c #836434",
" . c #8B6B36",
".. c #856C3B",
"X. c #876939",
"o. c #8C733C",
"O. c #8B7237",
"+. c #95763C",
"@. c #967639",
"#. c #8E6F34",
"$. c #856947",
"%. c #936A4B",
"&. c #8C7542",
"*. c #8B724C",
"=. c #8C794C",
"-. c #927442",
";. c #9C7B45",
":. c #947D4A",
">. c #9C7C4A",
",. c #947749",
"<. c #816A56",
"1. c #8A7558",
"2. c #957B53",
"3. c #9A7D59",
"4. c #A27E4C",
"5. c #A07D42",
"6. c #A47952",
"7. c #8D7C64",
"8. c #8C7C6C",
"9. c #867768",
"0. c #957C64",
"q. c #9B834B",
"w. c #9B8046",
"e. c #9A835B",
"r. c #9A8456",
"t. c #A4824B",
"y. c #AE8C4D",
"u. c #A68648",
"i. c #A58653",
"p. c #A58A52",
"a. c #AB8C53",
"s. c #A3845A",
"d. c #A48A5C",
"f. c #AA8C5C",
"g. c #AB8751",
"h. c #AA925A",
"j. c #B3935B",
"k. c #BD9A5F",
"l. c #B59355",
"z. c #B18E4B",
"x. c #8D8766",
"c. c #938863",
"v. c #918A69",
"b. c #9A886B",
"n. c #9C8A73",
"m. c #968374",
"M. c #A38C64",
"N. c #AB8E62",
"B. c #A48967",
"V. c #A6916A",
"C. c #AA916A",
"Z. c #A39465",
"A. c #B69B64",
"S. c #BC9B63",
"D. c #B49D6C",
"F. c #BD9D6B",
"G. c #B49568",
"H. c #AA8E72",
"J. c #AA9775",
"K. c #B39B73",
"L. c #B49B7B",
"P. c #BDA269",
"I. c #BBA37B",
"U. c #BBA579",
"Y. c #CBA55C",
"T. c #C19D62",
"R. c #C3A36B",
"E. c #CDAA6D",
"W. c #C9A46A",
"Q. c #D3AC6A",
"!. c #C3A373",
"~. c #C7A979",
"^. c #D3AE71",
"/. c #D4B374",
"(. c #D4B47B",
"). c #DBB57C",
"_. c #D9B778",
"`. c #C6B070",
"'. c #E2BD79",
"]. c #DAC37D",
"[. c #E2C077",
"{. c #AB9C82",
"}. c #B9A688",
"|. c #C4AB82",
" X c #C6AE86",
".X c #CBB38B",
"XX c #D6B485",
"oX c #DDBB85",
"OX c #D8BA8A",
"+X c #C4AF90",
"@X c #CEB695",
"#X c #D4BB96",
"$X c #E1BE83",
"%X c #E0BD89",
"&X c #C9BEA6",
"*X c #DFC58E",
"=X c #DCC39D",
"-X c #D8C99A",
";X c #E8C489",
":X c #E4C495",
">X c #E5C69A",
",X c #E8C997",
"<X c #EDD39B",
"1X c #F6D29A",
"2X c #D9C6A6",
"3X c #DCCDB2",
"4X c #E3CBA7",
"5X c #E9D5AA",
"6X c #F4D8A6",
"7X c #E8D6B7",
"8X c #F3DDB4",
"9X c #F2DDBC",
"0X c #F6DAB5",
"qX c #E4CEB2",
"wX c #F5E1BC",
"eX c #E7DCC5",
"rX c #F3DFC5",
"tX c #F4E3C0",
"yX c #F8E7C8",
"uX c #EDE4D2",
"iX c #FBEBD4",
"pX c #F4EEDB",
"aX c #FBECDB",
"sX c #F5E6D0",
"dX c #FAF4DE",
"fX c #E9E4CD",
"gX c #F7EDE4",
"hX c #FBF2E5",
"jX c #F9F7EB",
"kX c #FCFCF5",
"lX c #FBFDFA",
/* pixels */
"                                                                                                                                ",
"                                                                                                                                ",
"                                                            7.{ S A S `                                                         ",
"                                                          J.*.[ l A l l W                                                       ",
"                                                        J.J.}.Z.R [ ' <.n A                                                     ",
"                                                      }.J.7X3Xn.Z =.@X#XV.Z {                                                   ",
"                                                      n.&XhXeXJ.' J.0XrX5XM.W                                                   ",
"                                                    }.I.uXkXeXK./ U.0XsXwX@XW 7.                                                ",
"                                                    J.}.hXlXuX|.( K.tXiXsXqX! E                                                 ",
"                                                    Z.-XkXlXuXI...P.tXaXgXrX2.c                                                 ",
"                                                  }.J.7XkXkXsX}.=.K.wXaXhXsXK.z H.                                              ",
"                                                  }.L.fXkXlXeXF.q.K.9XaXhXiX XK {                                               ",
"                                                  N.+XgXlXkX3XB.( d.0XiXgXaX#X,.E                                               ",
"                                                +XC.2XjXlXjX2Xs...d.7XiXgXaX4X*.l 8.                                            ",
"                                                I.b.2XgXkXpX X$...N.5XiXgXaXqX2.2 <.                                            ",
"                                                J.1.-XpXkXuXI./ %.6.#XyXgXgX7Xf.% '                                             ",
"                                                n.2.|.qXaXqX3.R %.L K.7XiXiXqXs.@ `                                             ",
"                                                7./ D.#XqX@X! A E c 3.4XiXiXqXc.+ E                                             ",
"                                                0.R V. X.XV.Z z E u 1.>XwXtX#X$.X S                                             ",
"                                                0.x *.~.I.e.R z U e ! XX5X5X.X~ X S                                             ",
"                                                0.z / N.!.H.H 7 ~ 6 J !.=X=XK.F . _                                             ",
"                                                0.R *.D.!.K.~ d E w K 6.|.|.3.d . _                                             ",
"                                                1.~ B.|.|.B.~ Z x 4 z $.e.e.$.u . _                                             ",
"                                                Z ~ L.4X4XL.W l u 5 E %.H.B.3.E 4 l                                             ",
"                                                r A e.D.U.q.r 9 x @ / %XwXwX,Xd.# = m.                                          ",
"                                              }.r n :.h.h.Q 5 i z $ U $X6X6X>Xg.X 1 m.                                          ",
"                                              {.r V q.q.q.Q 4 w c : Q ).6X6X%X;.# & m.                                          ",
"                                              {.5 b q.p.q.I 4 7 c % ! XX1X6X$X#.@ * m.                                          ",
"                                              L.< b q.h.o.G ; i K 2 U ^.,X6X$X .# = x.                                          ",
"                                              L.r G p.P.q.G ; r k > U ^.1X1X%X#.* = 7.                                          ",
"                                              H.r C +.&.^ D ; , h @ g 5.).%XT.U - * v.                                          ",
"                                              H.< b o.&.I y + 4 w - 2 L j.T. .9 . * v.                                          ",
"                                              H., D &.w.W A & > d - 3 ! D.P.t.H . * x.                                          ",
"                                              B., n / :.( n 4 2 z O e U D.P.t.P o * x.                                          ",
"                                              b., Z ^ ^ I 5 & 3 h # 6 | :X(.j.Q o @ v.                                          ",
"                                              H.s ^ :.&.O.n $ w c # e -.:XoXW.! # = v.                                          ",
"                                              C.I o.h.P.p.W y C g : C i.).oXk.^ # 1 c.                                          ",
"                                              C.v O.l.P.t.U q F g @ a u._._.k.^ $ 1 c.                                          ",
"                                              N.I o.P.j.>.K 2 s j @ b +.)./.l.T $ : c.                                          ",
"                                              f.Y o.`.P.4.Q l M j @ a +.(./.l.$.$ 1 c.                                          ",
"                                              d.| >.~.!.4.G 3 v 8 $ 9  ././.S.| 3 4 b.                                          ",
"                                              s. .6.XX~.;.J 7 h j % a @.E.^.S.o.3 3 b.                                          ",
"                                              s.X.j.XXXXA.U u h p > b +.E./.E. .q u m.                                          ",
"                                              3.| G.XXOXj.! u p w 2 v @.W./.W.| % y n.                                          ",
"                                              ,.| N.OXOX;.K q g 7 $ n O.k._.k.T > u m.                                          ",
"                                              $.| N.%XOXp.P u a 6 @ r ^ S.W.l.Y q w x.                                          ",
"                                              $.! s.>X%Xa.U i a $ + 5 ^ l.k.+.M > q 8.                                          ",
"                                              ] X.N.,XoXi.I 7 t $ o 5 o.y.k. .a 6 e 9.                                          ",
"                                              $.P f.>XOXd./ q q 1 O > G 4.6.| s > 2 9.                                          ",
"                                              $.U N.:XXX>.P 7 7 & & y G 4.5.| s % 2 8.                                          ",
"                                              ] P r.,XXX;.g > 6 % + y X.l.T.+.s > q 8.                                          ",
"                                              %./ C.OX~.o.s : 6 2 . w | T.W.t.s > 2 8.                                          ",
"                                              2.:. X8X7XXX>.J c u 1 C a.(.^.W.;.a a n.                                          ",
"                                              *.o.~.9XsX,Xy.U k 6 1 v y./.'.'.z.s a b.                                          ",
"                                              ..#.~.rXsX:Xy.m M 6 < B y._.;X[.u.8 t x.                                          ",
"                                              q.5.^.9XwX;Xy.N N 0 0 } R.$X1X;Xu.8 a                                             ",
"                                                U.].<X6X;X/.l.k.4.g.W.'.;X'.Y.z.>.b.                                            ",
"                                                U.P.-X<X;X[._._.Q.Q.[.[.'./.l.z.d.                                              ",
"                                                Z.r.-XdXwX<Xu.@.#.u.].6X5X5Xl.I '                                               ",
"                                              &XZ.w.-XdXiX,X5.#.T +.,XwXyX8XA.m R {.                                            ",
"                                              q.w.U.7XpXyX-X^ m m @.,XwXwX5XP.^ n W x.                                          ",
"                                              r.r.*XyXfX5X`.#.) N #.`.6X8X8X,XD.C C                                             ",
"                                                        *XP.h.h.l.l.`.OX.XOX                                                    ",
"                                                                                                                                "
};
