/* XPM */
static char *dadf4a02dec8412dee53b2fe2a1a6a02NxL0haVNg8gRwDVY[] = {
/* columns rows colors chars-per-pixel */
"35 35 2 1 ",
"  c None",
". c black",
/* pixels */
"                                   ",
"                                   ",
"                                   ",
"                                   ",
"                                   ",
"                                   ",
"                ...                ",
"                ...                ",
"                ...                ",
"              .......              ",
"             ........              ",
"            ...........            ",
"           ...  ...  ...           ",
"           .. ....... ..           ",
"          .. .. ... .. ...         ",
"         ... .       . ...         ",
"      .........  .  .........      ",
"      ......... ... .........      ",
"      .........  .  .........      ",
"          .. .       . ...         ",
"          .. .. ... .. ...         ",
"           .. ....... ..           ",
"           ...  ...  ...           ",
"            ...........            ",
"             .........             ",
"              .......              ",
"                ...                ",
"                ...                ",
"                                   ",
"                                   ",
"                                   ",
"                                   ",
"                                   ",
"                                   ",
"                                   "
};
