/* XPM */
static char *_902072e366b4f758965f481f85aa7faHW5ohsrianawuvG7[] = {
/* columns rows colors chars-per-pixel */
"32 32 176 2 ",
"   c #2B1B0D",
".  c #2B1B12",
"X  c #351F12",
"o  c #37220F",
"O  c #2F2011",
"+  c #342314",
"@  c #3C2612",
"#  c #3C2914",
"$  c #42270F",
"%  c #422C0F",
"&  c #49300E",
"*  c #432B14",
"=  c #4B2F16",
"-  c #4D3416",
";  c #45311A",
":  c #4C341A",
">  c #4D3A1B",
",  c #503417",
"<  c #533D1A",
"1  c #553B15",
"2  c #483521",
"3  c #543A21",
"4  c #55421E",
"5  c #65461F",
"6  c #714F1C",
"7  c #564322",
"8  c #5C4424",
"9  c #5C4A26",
"0  c #5D4B29",
"q  c #504237",
"w  c #53473E",
"e  c #57483C",
"r  c #61492B",
"t  c #684E2C",
"y  c #614C24",
"u  c #6F562A",
"i  c #6D562A",
"p  c #72552A",
"a  c #6D5539",
"s  c #745C31",
"d  c #795D35",
"f  c #735234",
"g  c #7C623D",
"h  c #796636",
"j  c #665547",
"k  c #685945",
"l  c #7D6344",
"z  c #7C654A",
"x  c #7A6946",
"c  c #766859",
"v  c #846B3C",
"b  c #8A6D3B",
"n  c #836537",
"m  c #87703C",
"M  c #92773D",
"N  c #876A41",
"B  c #896D4C",
"V  c #877446",
"C  c #8C7241",
"Z  c #8B714F",
"A  c #9C7B46",
"S  c #957B4A",
"D  c #9A7C4B",
"F  c #927946",
"G  c #86775A",
"H  c #9C7C51",
"J  c #917A58",
"K  c #857162",
"L  c #9F8141",
"P  c #9B814A",
"I  c #958051",
"U  c #9D8155",
"Y  c #9E8559",
"T  c #A3834C",
"R  c #AB8B54",
"E  c #AC9057",
"W  c #B69357",
"Q  c #9D8462",
"!  c #978974",
"~  c #A18762",
"^  c #A18B63",
"/  c #A99366",
"(  c #AD9069",
")  c #B29561",
"_  c #B79861",
"`  c #BB9A65",
"'  c #B39768",
"]  c #AB9371",
"[  c #A09078",
"{  c #B39976",
"}  c #B59D7B",
"|  c #C19C5D",
" . c #C1A063",
".. c #C8A666",
"X. c #CCAA6D",
"o. c #C4A26C",
"O. c #CAA570",
"+. c #C3AB7C",
"@. c #CEAE7B",
"#. c #C3A270",
"$. c #D5B376",
"%. c #D8B271",
"&. c #DAB778",
"*. c #DFBF7E",
"=. c #A89C86",
"-. c #A39689",
";. c #BFA985",
":. c #BBA986",
">. c #BFB7B0",
",. c #BFBBB1",
"<. c #C3AC83",
"1. c #CDAD80",
"2. c #C5AE8F",
"3. c #C7B18D",
"4. c #C9B38F",
"5. c #D3B384",
"6. c #DABF8A",
"7. c #C0AF93",
"8. c #C8B99C",
"9. c #C5B196",
"0. c #D2BE9E",
"q. c #C2B4A3",
"w. c #CBBFA0",
"e. c #C2B9AD",
"r. c #CCBEAC",
"t. c #C4BDB3",
"y. c #C4BEB8",
"u. c #D4C18F",
"i. c #DFC58B",
"p. c #E6C286",
"a. c #EFCB96",
"s. c #E5CE9D",
"d. c #E2CA94",
"f. c #F4D39F",
"g. c #D0C3A7",
"h. c #DDCFA6",
"j. c #D5C7AC",
"k. c #D7C8AC",
"l. c #C7C0BC",
"z. c #CCC8BF",
"x. c #CAC4B9",
"c. c #D9CCB3",
"v. c #D5C9B9",
"b. c #D9CDBA",
"n. c #E4CCAC",
"m. c #EAD5AE",
"M. c #F7D9AD",
"N. c #EED9B5",
"B. c #E6D9BF",
"V. c #E9D5B9",
"C. c #F0DCBE",
"Z. c #D6CFC0",
"A. c #D7CFC9",
"S. c #DDD3C4",
"D. c #DDD5CC",
"F. c #D9D4D0",
"G. c #E6DBC6",
"H. c #EBDFC0",
"J. c #E4DCD3",
"K. c #E2DFDB",
"L. c #ECE3CE",
"P. c #FAE7CE",
"I. c #F2E1CE",
"U. c #E9E5DD",
"Y. c #E3E0DC",
"T. c #F1EBD7",
"R. c #F9EBDA",
"E. c #E8E5E1",
"W. c #EDEAE4",
"Q. c #F7EFE3",
"!. c #F3EFEA",
"~. c #F5F2EC",
"^. c #F9F8EF",
"/. c #F8F6F4",
"(. c #FAF8F6",
"). c #FFFFFF",
/* pixels */
").).).).).).).).).).).).).).).~.F.E.).).).).).).).).).).).).).).",
").).).).).).).).).).).).).).Z.[ k c x.).).).).).).).).).).).).).",
").).).).).).).).).).).).).Y.8.:.x ] G Z.).).).).).).).).).).).).",
").).).).).).).).).).).).).v.G.g.Q V.:.! ).).).).).).).).).).).).",
").).).).).).).).).).).).!.8.~.c./ C.V.B !.).).).).).).).).).).).",
").).).).).).).).).).).).b.g.^.k./ B.I.Q A.).).).).).).).).).).).",
").).).).).).).).).).).).9.c.~.3.Y V.R.;.-.(.).).).).).).).).).).",
").).).).).).).).).).).).} c.T.] H n.R.4.K !.).).).).).).).).).).",
").).).).).).).).).).).).J ;.0.l f } P.3.j E.).).).).).).).).).).",
").).).).).).).).).).).).z ~ ( 0 r ~ N.{ e K.).).).).).).).).).).",
").).).).).).).).).).).(.z J / t , n <.B w K.).).).).).).).).).).",
").).).).).).).).).).).!.x { { a 2 a ~ l q F.).).).).).).).).).).",
").).).).).).).).).).).E.4 I V > ; H M.1.+ l.).).).).).).).).).).",
").).).).).).).).).).).U.4 F h ; = S f.#.+ y.).).).).).).).).).).",
").).).).).).).).).).).J.4 S i # = C a.' + ,.).).).).).).).).).).",
").).).).).).).).).).).J.4 m 0 + @ t O.F . ,.).).).).).).).).).).",
").).).).).).).).).).).D.> v 0 + X 3 _ b   ,.).).).).).).).).).).",
").).).).).).).).).).).S.9 v 0 # @ r @.A O ,.).).).).).).).).).).",
").).).).).).).).).).).S.h E n : * s $.T # t.).).).).).).).).).).",
").).).).).).).).).).).G.m _ g , $ p X.H # e.).).).).).).).).).).",
").).).).).).).).).).).b.D O.d : $ p X.R ; t.).).).).).).).).).).",
").).).).).).).).).).).v.H 1.N , * p ..R : y.).).).).).).).).).).",
").).).).).).).).).).).r.T 5.v - o y  .A : y.).).).).).).).).).).",
").).).).).).).).).).).e.H 5.v -   4 W n * t.).).).).).).).).).).",
").).).).).).).).).).).>.F $.n * . < A p * >.).).).).).).).).).).",
").).).).).).).).).).).>.U 1.d $ . 8 W n * ,.).).).).).).).).).).",
").).).).).).).).).).(.8.' m.) y @ d %.| < e.).).).).).).).).).).",
").).).).).).).).).).).g.` N.` 6 & b p.X.1 x.).).).).).).).).).).",
").).).).).).).).).).)./.+.d.*...| &.&.W :.(.).).).).).).).).).).",
").).).).).).).).).).).W./ h.s.T M p.s.P =.!.).).).).).).).).).).",
").).).).).).).).).).).S.<.H.u.M M u.M.+.G D.).).).).).).).).).).",
").).).).).).).).).).).).~.Q.H.k.k.B.L.L.U.).).).).).).).).).).)."
};
