/* XPM */
static char *c03f1a95e6f14d32beb5153c8b78771938jDdZOPghFM45to[] = {
/* columns rows colors chars-per-pixel */
"64 64 238 2 ",
"   c #140E14",
".  c #1A151B",
"X  c #191418",
"o  c #1B100E",
"O  c #2C1D1A",
"+  c #241818",
"@  c #341E1A",
"#  c #28150F",
"$  c #2E211E",
"%  c #35221D",
"&  c #3A241D",
"*  c #1B1C24",
"=  c #1A1F26",
"-  c #251D24",
";  c #1E2229",
":  c #2B2324",
">  c #24242B",
",  c #2B242B",
"<  c #272428",
"1  c #342423",
"2  c #392928",
"3  c #3C322D",
"4  c #262A34",
"5  c #2A2B34",
"6  c #2A2E39",
"7  c #262934",
"8  c #372D36",
"9  c #2D313C",
"0  c #3C323B",
"q  c #383236",
"w  c #45241C",
"e  c #582C1E",
"r  c #422B25",
"t  c #482B26",
"y  c #532D24",
"u  c #4C322C",
"i  c #43312C",
"p  c #54342C",
"a  c #5A352A",
"s  c #41353E",
"d  c #493835",
"f  c #533632",
"g  c #543A34",
"h  c #5B3C33",
"j  c #5A3D38",
"k  c #673729",
"l  c #743C2A",
"z  c #633C33",
"x  c #6C3D32",
"c  c #603F39",
"v  c #723F31",
"b  c #652E27",
"n  c #401F17",
"m  c #5B4238",
"M  c #4D413F",
"N  c #7B422C",
"B  c #63433A",
"V  c #6C4B3D",
"C  c #694437",
"Z  c #734334",
"A  c #744B3B",
"S  c #794738",
"D  c #7B513D",
"F  c #383846",
"G  c #2D3340",
"H  c #453A44",
"J  c #4A3E45",
"K  c #463C49",
"L  c #513E4E",
"P  c #3F444F",
"I  c #4D424D",
"U  c #4A4247",
"Y  c #54464B",
"T  c #4A4853",
"R  c #534452",
"E  c #544A54",
"W  c #5C4C5B",
"Q  c #584A57",
"!  c #4C5359",
"~  c #5B535D",
"^  c #58565C",
"/  c #674B43",
"(  c #744D43",
")  c #7C5442",
"_  c #785647",
"`  c #655958",
"'  c #785D55",
"]  c #6B524A",
"[  c #796257",
"{  c #4E5860",
"}  c #5C5561",
"|  c #535C63",
" . c #5C5C64",
".. c #5A5B65",
"X. c #625864",
"o. c #56646A",
"O. c #5C646B",
"+. c #5B696E",
"@. c #576267",
"#. c #5D6D72",
"$. c #5F7176",
"%. c #63656B",
"&. c #66666B",
"*. c #636D74",
"=. c #6A6D74",
"-. c #6B6F78",
";. c #637176",
":. c #6B7275",
">. c #64747A",
",. c #6C737A",
"<. c #6A7A7E",
"1. c #66797D",
"2. c #73747D",
"3. c #747478",
"4. c #716D6F",
"5. c #823E36",
"6. c #854B35",
"7. c #8A533B",
"8. c #924B35",
"9. c #8B5B44",
"0. c #845C4B",
"q. c #875847",
"w. c #935D44",
"e. c #975E48",
"r. c #8F5753",
"t. c #8B624C",
"y. c #94634D",
"u. c #9A644A",
"i. c #886456",
"p. c #9A6B55",
"a. c #976956",
"s. c #9A735C",
"d. c #A5684B",
"f. c #A26C53",
"g. c #A96C56",
"h. c #AB7353",
"j. c #A3745D",
"k. c #AB745B",
"l. c #A97658",
"z. c #B67959",
"x. c #B76A56",
"c. c #956E61",
"v. c #9A7565",
"b. c #8E756D",
"n. c #A87964",
"m. c #B27C63",
"M. c #B67C66",
"N. c #B7716B",
"B. c #AA5E56",
"V. c #C47B58",
"C. c #C47973",
"Z. c #AB816B",
"A. c #B3836B",
"S. c #BB846B",
"D. c #B98467",
"F. c #A68473",
"G. c #BC8C74",
"H. c #B88974",
"J. c #BC9179",
"K. c #A18370",
"L. c #C58A68",
"P. c #C68C74",
"I. c #C4947C",
"U. c #CC9A7C",
"Y. c #CA9577",
"T. c #D59A77",
"R. c #CE936C",
"E. c #DCA37D",
"W. c #D6A17D",
"Q. c #757A83",
"!. c #7A7C84",
"~. c #7A7C86",
"^. c #6B7B81",
"/. c #807F86",
"(. c #7D8189",
"). c #7F8694",
"_. c #82848C",
"`. c #88868D",
"'. c #8C8C94",
"]. c #858992",
"[. c #928F93",
"{. c #BA9886",
"}. c #A69588",
"|. c #BAA49B",
" X c #B0B1B4",
".X c #9EA0A3",
"XX c #C99B85",
"oX c #D39C83",
"OX c #D89B88",
"+X c #DB9B94",
"@X c #D08985",
"#X c #C7A38B",
"$X c #D4A285",
"%X c #DBA583",
"&X c #D5A48B",
"*X c #D6A98D",
"=X c #DBA88A",
"-X c #CAA696",
";X c #DDAB93",
":X c #D6AA96",
">X c #DBB29B",
",X c #E3AC8B",
"<X c #E1A985",
"1X c #E4B28D",
"2X c #E3AB94",
"3X c #E5B394",
"4X c #E3B39A",
"5X c #EBBB9D",
"6X c #EAB597",
"7X c #F1BD9C",
"8X c #DBB5A3",
"9X c #DAB8A6",
"0X c #C9B5AC",
"qX c #E7BCA6",
"wX c #EBB0AB",
"eX c #D7C3B5",
"rX c #E9C2AC",
"tX c #F5C5AA",
"yX c #E9C6B3",
"uX c #F6CBB5",
"iX c #FAD2BA",
"pX c #D8CDC5",
"aX c #DBD8D6",
"sX c #E7D7CE",
"dX c #EBE4DD",
"fX c #DEDDE3",
"gX c #E1DFE1",
"hX c #DEE2E3",
"jX c #E4E4E4",
"kX c #EAE6E5",
"lX c #E6E8E6",
"zX c #EDE9E6",
"xX c #EAEAE5",
"cX c #E4E6E8",
"vX c #E5E9E9",
"bX c #EDEBE9",
"nX c #F2EAE6",
"mX c #F3ECE8",
/* pixels */
"jXhXhXjXhXlXlXlXxXxXxXxXxXxXbXbXxXbXnXnXbXbXmXmXmXmXxXmXmXmXmXmXmXnXnXnXnXnXzXnXbXnXzXzXzXkXkXzXkXkXkXkXkXkXkXkXkXkXkXkXcXkXcXgX",
"fXjXfXjXhXjXlXlXxXlXxXxXxXxXxXxXbXzXbXbXbXmXbXbXmXmXmXmXmXmXmXmXnXnXnXmXmXbXbXzXzXzXzXzXnXkXkXzXzXkXkXbXkXkXkXkXkXkXgXcXcXgXcXcX",
"hXhXhXjXhXjXjXlXjXxXxXxXlXxXbXxXxXxXzXzXmXnXbXnXxXmXmXmXmXmXmXnXnXnXdXsXeX9X9XeXpXnXzXzXzXkXzXkXkXkXkXkXkXkXkXkXkXcXkXkXkXfXkXgX",
"hXhXhXdXhXdXjXlXlXxXjXlXxXxXxXxXxXxXzXbXbXnXbXmXmXmXmXmXmXmXmXxXnXsXrX>X>X:X#X#X#X0XsXmXzXzXkXzXnXkXkXkXkXkXkXkXkXkXcXkXkXgXkXcX",
"hXhXhXhXjXjXjXjXlXlXlXlXdXxXxXlXxXxXxXxXxXzXbXnXmXmXmXmXmXmXmXmXpX9X8X9X-X-X:X#XXX-X{.pXmXmXkXlXkXdXxXkXkXdXkXkXkXkXkXkXcXkXcXcX",
"hXhXjXhXhXjXjXcXlXlXlXdXlXlXlXlXlXxXdXxXzXzXzXzXxXmXmXmXnXnXmXsX9XqX9X8X-X{.{.F.F.n.F.F.-X0XsXjXzXkXxXzXkXlXkXkXkXcXkXkXcXkXfXkX",
"hXhXhXhXhXjXcXlXlXlXlXlXlXlXlXdXdXlXlXxXxXzXzXzXxXnXnXmXmXzXsX-XJ.n.i.0.( A A C C ( C ( ] _ 0.c.}.eXdXxXkXdXkXkXkXkXkXfXfXkXkXkX",
"hXhXhXhXhXjXcXjXlXhXlXlXlXlXlXlXlXlXxXdXxXxXnXkXxXxXmXsX0XK.t.D A A Z Z C Z Z C x x C z z c c j B _ b.0XdXdXlXkXkXkXkXkXcXfXkXfX",
"hXhXhXhXhXhXlXlXlXlXlXlXlXlXvXlXxXlXxXxXjXbXkXnXnX0Xv.q.S S S S Z Z Z C x x x x x v c z z x h z c z B ( b.eXkXcXkXfXgXkXkXgXkXkX",
"hXhXhXhXhXlXhXhXhXlXlXhXvXvXlXlXjXjXjXbXvXxXgX-Xi.A A S S S S S Z Z Z x x k x z z z z z z z z z z h c c B V b.pXkXkXkXkXgXgXfXfX",
"hXhXhXhXhXlXvXlXlXlXhXlXlXvXvXlXlXbXkXkXkX|.0.( Z S Z S S Z Z k k k a a y y t t r y y z a b k z z h z h j j j V |.kXcXkXkXkXkXfX",
"hXhXhXhXhXlXhXvXlXhXlXlXhXvXvXlXcXcXbXpXa.A S S Z v v Z x k a y r w w t t t t r 2 $ + @ r a a z z a z z c j f j c b.pXgXfXgXkXfX",
"hXhXhXhXhXhXvXhXhXvXvXhXlXvXvXvXcXkX0Xq.S v x v v x x a w w e a z C A D D D D D A C p 1 + + 2 a z a z z z j j j j j ' pXkXgXfXfX",
"hXhXhXhXhXvXvXhXvXhXvXvXvXhXvXvXcX0X( v x v x x x z t @ a N 7.t.u.p.p.l.k.l.j.f.y.w.D C p - X + t z h z z h c j j d g ' pXkXkXgX",
"hXhXhXhXhXhXvXhXhXvXvXvXvXhXvXvX0X( v v v x x x a @ n Z 7.u.h.D.D.L.P.U.U.Y.P.S.m.g.u.9.S h - . . 1 p y p h u f d j f f i.aXfXfX",
"hXhXhXhXhXvXvXvXvXvXhXvXvXvXvXpX0.6.v v v v k b @ @ 6.d.D.D.R.$X$X*X*X*X*X:X$XU.P.L.k.d.e.S h 2 .   @ f h p f f j j f d j }.fXfX",
"(.).[.[..X.X.X.X X X X X X X Xn.q.v v v v x k 2 # N d.L.R.T.1X>X4X8X9XqX>X;X*X&X$XY.L.D.g.y.q.B t .   1 f p f f j u f f f / pXfX",
":.>.<.Q.<._._.`.`.`./.[.[.[.}.7.6.N l l l b t # w w.V.T.1X1X5X5XqXyXrX9XqX8X4X>X;X*X$XI.P.M.p.9.c 2 .   @ u u u u f f f f f ` ^.",
";.:.:.2.!.(.K.(._.`.'.'.[.[./.8.6.l l k k a @ o Z D.T.1X6X5XrXrXyXyXqX9XqX9X:X0X#X{.J.J.G.G.n.s.r.j - . X @ r y u u f u u u d X.",
";.:.,.2.Q.Q.^.(._.].'.'.[.[.N.7.6.l l l v y o @ z.E.6X5XtXyXyXrXyXyXyXyXyX-X{.v.[ Y Y ] ' i.n.n.a.( u - . X 2 r r u u u u f u X.",
"=.-.<.2.Q.!.(.(._._.].'.'.'.a.5.6.l l l b @ + C W.3XrX>X9XqXyXyXyXyXyXyX8X{.F.b.[ ' ' [ [ ' i.n.j.y.V - - - - 1 r r t u r r i ` ",
"*.-.<.2.Q.!.(.(._.(._.].'.'.a.6.8.6.l k y O O j.=XXXF.c.n.{.-XyXyXyXyXrX-X{.F.F.v.{.-X8X-X{.v.a.n.a.q.8 - *   O 2 r r t r r r U ",
"*.,.2.^.Q.!.(.(._.)._.].'.'.a.8.8.N l k w + & P.s.[ _ i.v.{.U.>XrXrX9X9XXXXXH.M.XX8X9X9X8X>X-XF.a.s.9.i * .     $ 2 r 2 r r r M ",
"=.,.<.<.Q.Q.(.!.~.~._.].].].c.8.8.N b b & % y D.s.J.J.G.P.oXOX2X4XrX9X:XI.m.n.G.9XyXqX9X:X*X-X#Xn.n.a.h * .     O % & r r 2 w M ",
"-.-.^.,.Q.Q.~.~.~.(.).(.].'./.w.6.N k b w & C D.>XrXrX5X;XY.R.<X5XyXqX:XG.j.n.U.:X9X9X:X+XXXG.G.H.j.j.V .   .     @ & 2 & r & d ",
"*.-.-.,.2.Q.~.Q.Q.~.(.(.'.'./.r.6.N k b w @ C *XtXuXuXrX2XY.R.T.7XuXqX4XI.S.H.Y.:X9X8X-X{.H.A.n.H.A.j.i.2 - *   + - 1 & & 2 r U ",
"*.*.*.-.-.,.Q.Q.^.~.~.(./././.r.8.l k e n @ i.5X5XrXrX8X:XP.L.<X7X7X6X,X$X&XP.7.' x h C / v q.M.U.Y.m.p.g 0 .     O 1 1 r i & Y ",
"%.*.*.*.-.-.2.2.2.Q.~.(./././.b.7.6.l k w r J.1X3X>XqX-Xn.e.N.6X6X1X1X<X<XoXOXP.n.N.M.N.p.e.M.T.U.U.D.k.V , < X . @ & r 2 % 2 ! ",
"+.O.*.#.%.=.=.=.2.2.Q.~.Q./././.u.6.N l e y $X<XD.p.q.Z ) p.2X6X6X3X,XE.T.<X<XOXT.R.P.R.T.%X<XE.U.Y.G.l.r., , . X $ % 1 & % q ! ",
"+.%.O.#.O.%.&.&.&.&.4.2.Q.Q.~./.c.7.N l e C 1X1XL.L.T.@XOX6X7XtXtX5X3X=X%XoX%X6XqXqX6X2X3X1X1X=X%XU.G.l.a.i 5 < . + @ % % % F T ",
"%.O.+.%...%.%.&.&.=.4.Q.2.Q.4.~.3.t.6.k b D 5X5X3X2X7X7X7X7XtXiXuXqX4X2X2X=XU.oX4XqXrXrXqX5X3X>X*XU.J.s.p.d 5 - u % O % $ , P ! ",
"O.%......... .X.X.&.&.4.4.Q.Q.%.3.i.6.l l y.5XtXuXiXuX7X5X7X2X6X2X=XI.P.I.I.P.P.OX3XqXqXqXqX>X>X:X$XH.j.p.j 2 3 A p O $ $ q P P ",
"O.O.%.@. . .^  .^  .&.&.=.:.:.:.:.4.9.6.N G.uXiXiXuXwX2X,XV.M.oXP.P.0.t y v e.N.OXT.*X2X4X4X:X*X&XI.A.j.p.B d ' r.j + - 3 F F P ",
"O.@.^ ^ ^ ^ ^ ~ ^ %.&.&.=.;.:.:.:.>.t.w.w.7XiXiXqX5X2X2XT.8.5.g.d.e.S ] q.q.e.H.oXL.z.Y.&X*X*X$XI.G.Z.s.p./ ] n.n.0.O 1 8 F P T ",
"@.O.O.^ ^ ^ ~ ~ ` O.&.&.&.;.;.1.:.>.4._ D.tXtXtX4XOXP.2X2XV.Y.Y.x.f.r.a.s.n.L.Y.XXY.M.d.C.Y.Y.Y.H.m.n.j.y./ ' n.N.v.- 5 G G F P ",
"@. .X. .^ ^ ~ }  .` O.&.;.$.>.>.>.1.:.:.U.7X7X1XoXV.V.6X7X,XM.j.n.H.i.r.q.q.e.m.L.P.S.k.7.z.L.A.z.m.j.s.a./ r.H.n.i.5 6 G G F F ",
"..@.X.X.} } } } ^ X.%.%.$.>.1.1.<.1.1.:.#X1XE.R.x.d.<X2XR.V.C.@X+X+X+X@XN.N.B.N.N.e.e.r.9.w.D.D.m.k.j.s.t.V 0.M.n./ 4 4 G G G F ",
".. . .~ ~ ~ } }  .%.%.+.$.$.1.1.<.<.<.<.#XE.E.D.w.k.C.T.OX@X+X+X@X@XC.N.B.r.r.r.r.r.q.C Z y.L.S.D.k.s.a._ m B.n.c., ; 4 7 G G G ",
"..} ~ ~ } ~ }  . .O.O.+.#.$.$.1.<.<.<.<.#XE.L.V.e.q.P.V.x.C.C.C.C.C.C.C.C.C.N.r.v b k S e.m.E.R.D.l.s.t._ B n.f.( * = ; 7 6 G F ",
"..} ~ W W X.X. .X.O.O.+.#.$.$.1.1.<.<.<.U.E.T.T.B.8.B.8.C.2XwXwXwXwXwXwX+X@XC.B.B.B.g.k.A.&XW.G.Z.s.a._ / C A.M.d . = = 4 4 G G ",
"} } W W W W X.X.` @.o.@.#.$.$.1.1.1.1.1.F.1X1X>X$XD.Y.P.OX,X2XwXwX+X+X+X@XM.H.{.N.k.M.S.Y.1XU.Z.s.t.i.] m _ H.A.d * = = ; 4 6 F ",
"} W W Q W X.} X.@.@.@.+.+.+.#.$.>.$.1.1.K.*X1X5X5X*X1X=X,X,X<X&X+X@X-X@XH.H.M.n.n.m.S.H.%X*XG.a.t._ [ V m V s.t.- * = = > 4 6 G ",
"^ W Q Q W W } } ` @.@.o.o.#.#.$.>.>.>.1.;.K.1X1X5X5X>X1X,X<XOXY.H.J.{.H.J.G.G.H.A.H.P.$X*XU.Z.t._ _ V m u 2 2 X * * * * ; 4 7 6 ",
"E Q R Q W W W } | @.@.o.+.o.+.#.$.$.>.>.+.K.R.W.3X5X5X5X6X2X2X,XXXOX@XXXXXJ.J.G.H.J.oX:XW.Z.f.) [ V m m m + $ X X * * = ; 4 4 6 ",
"R Q R Q Q W { { { @.o.o.o.o.#.#.;.;.;.1.1._ D.R.E.6X7X5X3X;X3X4X2X;X&XXXI.P.G.G.I.oX*X*XU.Z.p.) ) m m m m o % $ * * = = 4 4 7 G ",
"L Q L W R E T E ! @.@.o.o.o.#.#.$.;.;.>.1.@._ L.T.E.7X5X3X3X3X4X;X+XXXOX&XOXU.XXXX*X*XU.J.l.p.t.V V m m i $ 3 : . = = = ; 4 7 G ",
"L L L T Q T ! ! { o.o.o.o.o.#.#.#.;.;.;.;.>.] Z.R.E.6X5X5X3X5X4X;XOXOX2X:X%XU.XX*X&XU.G.D.l.t._ C m m m f i 3 : - = ; ; ; 7 7 G ",
"L L L L L T T ! { { o.o.+.+.+.#.#.;.;.1.<.1.#.) L.T.1X5X4X3X3X$XP.M.L.;X@XG.I.&X#XU.G.A.s.y.t.A a u m V m i i : < > = ; 4 7 7 6 ",
"L L L T T T ! ! { @.@.@.o.o.#.$.#.;.;.*.Q.<.,.4.l.R.T.%XW.#X*X*XOXU.U.$XD.Z.J.R.Z.K.s.K.t.) D m 3 a m D m m M 1 < < ; ; 4 4 4 4 ",
"} W W Q T T ! ! ! | o.o.o.#.+.;.#.>.*.*.*.;.,.3.[ z.D.Z.Z.H.J.*X&XoXY.D.d.Z.K.K.t.[ _ t.V V u 3 u a m ) m m i & 3 3 < < 4 4 4 4 ",
"^ ~ } ! ! ! ! { { @.@.+.+.#.#.*.*.*.*.,.,.:.<.:.&.y.p._ i.i.s.Z.D.P.D.Z.d.K.[ [ ] m m m 3 3 r e m V A _ m m m 3 3 5 < < ; 4 6 6 ",
"E ^ } ! ! ! ! | +.o.@.o.+.#.*.*.*.,.>.;.,.>.=.3.4._ A ] / V D t.y.l.u.u.9.D V M M 3 3 3 & & i a C V _ t.m m m M 3 3 < 4 ; 4 6 9 ",
"q T ! ! T ^ T T Y U X.^ %.*.*.*.*.,.;.,.:.:.3.-.4._ m Y p p m C D 9.t.9._ m 3 $ = < O O O e m V V ) t._ V M m 3 3 3 4 > 4 4 4 9 ",
"< q ^ X.&.! 5 ^ , E s q U !  .*.=.&.%.=.:.=.=.3.4.s._ i u t y k N 7.7.7.N r & O X X o O u m V V ) t.y.t.m M 3 M s 3 5 3 4 6 9 6 ",
"U X.&.} X.F ~ I U ^ R E Y s 8 8 8 I H F =.,.3.4.[ I.j.f u y a N S 6.S S k a & O o o $ g m m D D t.y.t.) m 3 & 3 3 < 5 < < 4 4 G ",
"&.~ ` W X.U Q K E ` , + + - q I Q K 1 1 s Q W H B $X%XD.q.k b k N N N N e e & # O & a m V D t.t.u.y.y.t.a 3 3 3 2 5 4 < 4 4 6 6 ",
"} } E Q R F R L I 5 + , H I E I s , - s E U 1 i t.1XE.E.L.d.8.N l N l k e e w w e m V V _ ) ) w.t.u.y.q.g % 1 , < < > 5 5 4 4 9 ",
"Q E T K K F L K H + s I R I Y H 8 1 L W J 1 8 Y i.1XE.E.R.R.d.8.N l k b e e e k V D D D t.) 9.t.u.p.y.9.m $ < : < < , , 5 4 6 6 ",
"L T K K K K K L - H Q R Y R H 0 0 R R s , 8 Y J i.=XE.E.W.R.h.d.7.8.N N N S 7.D D D 7.D 9.7.w.u.d.f.p.t.m 1 , , : < , 5 4 6 6 9 ",
"T K K H F F L H 8 W W W Q J s J R K 2 - 8 H s d i.<XE.E.R.R.D.D.h.d.d.u.w.w.w.9.9.9.9.9.9.9.u.u.f.f.y.q.C : - - < < < 4 4 4 4 9 ",
"K T F G G F K F L X.W E I J I J 0 2 - 8 8 0 s J i.%XE.E.R.R.D.D.V.h.h.h.h.d.u.u.w.w.w.7.9.u.d.d.f.f.y.t.) 2 : - < < 5 < 5 6 6 6 ",
"F K F 8 8 K K K } ` Q I I U H 0 8 s 0 H : J Y Y i.%X%X%XW.U.R.D.D.L.L.D.D.d.h.u.d.w.w.w.u.d.Z.h.h.f.u.9.q.j - < < < < 5 4 4 6 9 ",
"F G 8 7 8 T L ~ X.} Q I J H H H s s I - 0 R R U i.%X%X%XE.E.E.E.R.R.R.R.D.h.d.u.w.w.w.u.Z.d.h.h.h.h.f.t.9._ $ ; $ ; < 4 5 6 q 9 ",
"F 8 8 7 F T E X.X.W R I R H 0 s H H 8 + E Q I s 0.%X<X%XE.E.E.E.E.E.E.R.L.D.d.u.w.d.h.h.h.D.h.h.Z.l.h.u.t.y.f ; $ * < 5 < 6 6 6 "
};
