/* XPM */
static char *df71cec31a64492ce14772caff8022e1YcZjg6xn8QBLPEAm[] = {
/* columns rows colors chars-per-pixel */
"64 64 239 2 ",
"   c #0D0B0E",
".  c #120E13",
"X  c #181519",
"o  c #19151B",
"O  c #26181C",
"+  c #1E1B21",
"@  c #1E1A2D",
"#  c #1F1D34",
"$  c #231D23",
"%  c #261C2A",
"&  c #371D22",
"*  c #221E34",
"=  c #1D2637",
"-  c #28232A",
";  c #33262C",
":  c #2A2535",
">  c #2E2A35",
",  c #362C38",
"<  c #38323D",
"1  c #4E2C32",
"2  c #59363A",
"3  c #6C2E2E",
"4  c #753839",
"5  c #70403F",
"6  c #2C2946",
"7  c #312B47",
"8  c #3B3342",
"9  c #363449",
"0  c #33314E",
"q  c #393657",
"w  c #463948",
"e  c #563C47",
"r  c #463956",
"t  c #533E56",
"y  c #693C44",
"u  c #4A3C61",
"i  c #254F63",
"p  c #31516B",
"a  c #2B5B75",
"s  c #51424A",
"d  c #4C4457",
"f  c #584657",
"g  c #67434C",
"h  c #724955",
"j  c #7F555A",
"k  c #4B4565",
"l  c #574966",
"z  c #4C5667",
"x  c #585869",
"c  c #5A4B74",
"v  c #505278",
"b  c #6C4F6E",
"n  c #67556C",
"m  c #775565",
"M  c #665875",
"N  c #526276",
"B  c #7B677A",
"V  c #84423E",
"C  c #8A3749",
"Z  c #B53D63",
"A  c #874A4A",
"S  c #934D4E",
"D  c #984955",
"F  c #8B5354",
"G  c #885558",
"H  c #985959",
"J  c #A94D5B",
"K  c #AA555B",
"L  c #9F605F",
"P  c #885B63",
"I  c #985D65",
"U  c #865D7D",
"Y  c #B34B62",
"T  c #A55C64",
"R  c #B5596A",
"E  c #BB5B78",
"W  c #9A6369",
"Q  c #896377",
"!  c #8E6877",
"~  c #9A6877",
"^  c #AC6264",
"/  c #A7666A",
"(  c #A56A6D",
")  c #B3676A",
"_  c #A46973",
"`  c #AB6D73",
"'  c #B66974",
"]  c #B46D74",
"[  c #AC7175",
"{  c #A7727D",
"}  c #AE727A",
"|  c #B27374",
" . c #BA7376",
".. c #B4757B",
"X. c #BC767B",
"o. c #B5797B",
"O. c #BB797D",
"+. c #C25572",
"@. c #C8616C",
"#. c #C66878",
"$. c #C2737C",
"%. c #C17A7D",
"&. c #585883",
"*. c #67588A",
"=. c #586B8C",
"-. c #6A6587",
";. c #786688",
":. c #796997",
">. c #797694",
",. c #7773A5",
"<. c #966D87",
"1. c #8B738C",
"2. c #9A748B",
"3. c #9B7794",
"4. c #A36E84",
"5. c #A87688",
"6. c #B87784",
"7. c #BC7C83",
"8. c #B5798C",
"9. c #BB7D8A",
"0. c #A47B97",
"q. c #8B79A6",
"w. c #8D79AF",
"e. c #A77FA3",
"r. c #CC6988",
"t. c #C37C84",
"y. c #C87B83",
"u. c #C37D8A",
"i. c #CB7D8B",
"p. c #D27391",
"a. c #7D88B0",
"s. c #91849B",
"d. c #BD8185",
"f. c #BD848B",
"g. c #BF888F",
"h. c #B78698",
"j. c #B38B9C",
"k. c #8E86AA",
"l. c #9585AE",
"z. c #9889AD",
"x. c #898AB8",
"c. c #9686B0",
"v. c #9B85B4",
"b. c #9688B1",
"n. c #9B8CB4",
"m. c #9C8EBA",
"M. c #9C91B7",
"N. c #9F92BC",
"B. c #B390AF",
"V. c #A191B7",
"C. c #A393BC",
"Z. c #A898BF",
"A. c #C28285",
"S. c #CA8087",
"D. c #C3848B",
"F. c #CB848C",
"G. c #C4898D",
"H. c #CA8B8E",
"J. c #D0898E",
"K. c #C48492",
"L. c #CB8492",
"P. c #C48B93",
"I. c #CC8C93",
"U. c #CC859C",
"Y. c #C48C9C",
"T. c #CB8C9B",
"R. c #D48A96",
"E. c #D28D9C",
"W. c #C99199",
"Q. c #CC929B",
"!. c #D5939A",
"~. c #D3939C",
"^. c #C38DA3",
"/. c #D38BA2",
"(. c #C592A4",
"). c #CB95A4",
"_. c #D494A1",
"`. c #D996A6",
"'. c #D59AA3",
"]. c #D39AAA",
"[. c #DA9BAB",
"{. c #DB87B6",
"}. c #C998B3",
"|. c #D99CB3",
" X c #DBA1AD",
".X c #DCA4B9",
"XX c #E1A9BD",
"oX c #899CCC",
"OX c #A496C1",
"+X c #A696C4",
"@X c #A699C5",
"#X c #AB9BC4",
"$X c #AC9DC9",
"%X c #AE9DCC",
"&X c #95A4D6",
"*X c #AEA1CD",
"=X c #B2A3CD",
"-X c #AEA7DC",
";X c #B3A5D1",
":X c #B5A9D4",
">X c #B9AAD6",
",X c #BAADDA",
"<X c #BDB1DD",
"1X c #BDB4E3",
"2X c #B9B6E7",
"3X c #B5B6EB",
"4X c #E194C1",
"5X c #CCAACF",
"6X c #DCABC8",
"7X c #C0B3DF",
"8X c #E3ACC7",
"9X c #C3B6E3",
"0X c #C5B9E6",
"qX c #CABAE6",
"wX c #C6BCEA",
"eX c #CFBBEA",
"rX c #CABDEA",
"tX c #CDC2EE",
"yX c #D4C4EE",
"uX c #C1C1F4",
"iX c #CEC5F1",
"pX c #D1C6F1",
"aX c #D4CAF5",
"sX c #D9CCF5",
"dX c #D6CDF9",
"fX c #D9CEF9",
"gX c #DFD5FB",
"hX c #DDD3FD",
"jX c #E1D6FE",
"kX c #E2D9FD",
"lX c #E4D9FD",
"zX c #E5D9FD",
"xX c #E4DAFD",
"cX c #E6DAFE",
"vX c #E7DBFF",
"bX c #E6DCFE",
"nX c #E7DCFE",
"mX c #E8DDFF",
"MX c #EEE3FE",
/* pixels */
"hXfXhXhXhXjXhXjXhXhXfXjXjXhXfXfXgXjXzXbXgXgXgXbXgXgXgXxXgXgXxXxXxXxXhXxXxXxXxXxXzXlXlXlXlXlXzXzXlXlXlXlXlXlXlXlXlXlXlXlXjXjXjXzX",
"fXhXhXhXjXhXjXjXhXhXfXhXjXfXfXfXgXgXbXgXgXbXgXbXzXxXgXbXxXxXxXxXxXgXMXxXgXxXxXxXbXzXbXlXgXbXzXzXlXlXlXbXlXzXbXlXlXlXlXlXjXjXzXjX",
"hXfXhXjXhXjXjXjXhXhXhXhXhXjXfXfXgXxXbXgXgXgXbXgXhXgXxXxXxXxXxXxXxXxXxXxXxXxXxXxXzXzXzXzXlXlXbXzXlXlXlXlXzXzXzXzXlXjXzXzXzXjXjXjX",
"fXfXhXhXjXjXhXjXhXhXhXjXjXjXhXfXgXgXxXxXbXbXgXbXbXxXxXxXgXxXxXxXxXxXxXxXxXgXMXxXzXbXzXbXlXbXzXlXlXlXbXbXbXzXzXzXlXlXlXzXjXzXjXzX",
"hXhXhXjXhXhXjXjXjXfXhXhXjXhXhXfXhXzXbXzXbXgXxXbXxXxXxXgXxXxXgXxXxXxXxXgXxXgXMXgXzXzXnXzXzXmXzXzXlXbXzXlXbXzXzXzXzXzXjXzXzXjXnXjX",
"fXhXfXjXjXjXjXjXjXjXfXjXjXhXhXhXhXzXbXzXgXzXgXzXxXxXxXgXxXxXbXxXxXxXxXgXxXMXgXMXzXbXzXzXzXzXzXnXbXgXbXbXzXzXzXzXvXmXvXzXzXjXnXjX",
"jXfXjXjXhXjXjXjXjXjXhXjXjXjXhXhXhXzXxXbXbXbXjXzXxXxXxXxXxXxXxXxXbXxXgXMXgXMXxXMXzXzXzXzXmXzXmXjXbXlXbXlXbXzXbXnXzXvXxXzXbXjXjXjX",
"fXjXfXjXjXjXjXjXjXjXhXhXjXhXhXfXgXgXxXbXgXzXxXxXxXxXxXxXxXxXxXhXxXxXMXxXxXxXxXhXzXnXmXbXzXmXmXjXbXbXbXlXzXbXzXzXmXjXzXzXzXzXjXnX",
"hXhXsXjXjXjXjXjXjXjXhXhXjXjXhXhXhXxXxXzXzXzXjXzXxXxXbXxXbXxXbXbXxXbXbXbXbXzXbXbXzXbXbXbXmXbXzXbXmXbXmXbXzXzXzXmXzXvXzXzXjXzXzXvX",
"hXsXjXjXjXjXzXjXjXjXhXjXjXjXjXhXjXjXjXjXjXzXxXxXxXxXgXxXgXbXbXbXzXxXbXzXzXzXzXzXzXzXzXzXzXmXmXzXbXmXbXmXmXmXbXjXzXzXzXzXmXjXjXjX",
"sXjXjXhXjXjXjXjXjXjXfXjXjXjXhXfXjXjXjXxXjXjXjXxXbXbXxXgXs.M > -.xXgXzXzXzXmXzXzXmXzXzXzXjXmXzXzXzXzXbXjXzXmXmXzXzXzXvXvXvXzXzXvX",
"sXjXjXjXjXjXjXjXjXjXhXjXhXhXjXhXfXjXjXjXjXjXjXhXgXgXiX: + - + + 8 B gXxXzXzXbXmXzXzXzXbXzXmXmXzXnXnXmXzXmXmXzXmXzXvXzXzXzXzXvXjX",
"jXfXsXjXjXjXjXjXjXjXfXjXhXfXjXfXfXjXjXjXhXgXhXgX-.d O d r > f - X < n f MXxXzXbXzXmXmXzXbXnXnXnXnXnXnXzXvXmXzXzXzXzXvXzXzXzXzXzX",
"jXjXjXjXjXjXhXjXjXjXfXfXhXfXfXhXdXhXhXhXhXdX-.1 > X < o   o - f k - 8 k d q.bXzXmXzXbXmXnXnXmXmXzXnXnXnXzXzXmXmXzXvXzXvXzXzXvXzX",
"sXjXjXsXjXjXjXjXjXjXfXfXhXfXfXfXdXhXgXfXgXd x - $ + > - + + : n w n > o 8 x b hXzXbXzXzXzXnXjXzXzXnXzXnXzXmXmXmXzXmXmXzXzXvXzXvX",
"jXjXjXhXhXjXjXjXjXfXfXfXfXfXfXfXdXsXfXyXt x 9   8   . o , , d , 9 - + s   + f n jXjXzXzXnXnXnXnXnXnXnXnXbXmXbXmXzXzXzXvXvXzXzXzX",
"jXjXjXsXjXjXsXjXhXhXdXaXfXfXpXfXsXaXpX> >   O > o - > 8 9 ; w - w < 2 o O $ B P tXjXzXzXnXnXzXnXnXnXnXnXmXmXnXnXnXzXmXmXmXzXzXmX",
"sXhXjXhXjXjXjXsXhXfXdXaXsXaXpXpXaXpX=X: - . o o o d 8 o s < ; e j ~ o.W G f O s f sXmXbXnXjXmXnXnXnXnXnXbXmXnXnXzXbXzXzXzXbXzXzX",
"jXhXjXhXhXhXhXsXhXdXsXpXaXaXtXtXpXpXl $ . o - + % t l f e j W d.d.d.S.A.O.[ G o s fXmXbXzXzXzXmXnXnXzXnXmXzXnXnXvXzXvXmXvXzXjXvX",
"jXhXsXjXhXhXsXfXhXdXsXpXpXpXrXrXrXz.> d o . o s 2 G W G I I D.H.I.H.I.H.F.D.9.5.2 l sXmXzXmXzXmXnXnXnXnXzXnXnXnXzXmXzXmXzXvXvXzX",
"hXhXhXhXsXhXsXfXdXsXpXtXyXtXqXqXwXd > X - , 2 A A ` X.6.%.I.E.!.Q.Q.!.I.I.H.G.Y.5.c >XzXbXzXzXbXzXmXnXnXnXzXnXnXmXmXmXvXvXzXvXzX",
"hXhXhXhXhXsXfXfXsXpXtXtXrXqX7X7X<Xf o s - 2 F  .H 6.P.L.~.!.I.I.!.!.!.!.H.!.S.P.^.m r zXzXmXmXzXmXzXnXnXnXmXnXnXmXzXvXmXmXzXzXvX",
"hXhXjXfXhXfXfXsXsXpXtXtX0X7X7X>X,X< o o - H (  .A.A.A.I.E.H.E.I.!.!.'.'.!.R.S.P.Y.8.w yXbXzXzXbXmXmXmXmXnXnXnXnXmXmXmXzXzXvXvXvX",
"jXsXfXhXfXhXfXeXyXtXrXqX0X7X,X=X:XM < o F (  .X.%.G.I.'.!.!.!.!.'. X'. X'.J.I.F.P.(.m ;.zXzXmXzXzXzXzXbXnXnXnXnXmXzXzXmXvXzXvXzX",
"hXhXhXfXfXdXsXpXpXrXrX9X7X,X>X=X*X#X, G <.]  .X.%.F.!.~.'.!.[..X.X8X8X].[.'.~.I.P.^.! t xXzXmXzXmXzXzXmXbXmXmXmXmXbXmXzXmXzXmXvX",
"hXsXsXfXdXdXaXpXpXeX9X9X,X>X=XZ.C.B - 2.4.[  .d.H.Q.].].}..X6X8X8X8X5X}.B.}.U.E.P.Y.8.t zXzXzXbXzXzXmXmXzXbXmXmXbXmXzXvXmXzXvXzX",
"hXhXhXfXfXfXaXpXtXqX9X,X>X=XZ.C.M.e e 1.{ { O.D.Y.^.}.}._..X.X8X6X5.< t 8 & f h ^.Y.}.f zXzXzXzXzXvXmXmXmXzXzXmXbXnXnXzXmXvXvXzX",
"sXhXsXfXfXfXeXaXtXqX9X,X>X=XZ.n.M.f f <._ { 9.! 3.< < m 5.Y. X.X].5.f.t.^.K.U.(.W ^.(.m zXzXzXzXvXzXzXvXzXmXzXmXmXmXnXnXzXmXzXvX",
"hXfXfXfXsXeXpXeXeXqX7X>X=X%XZ.V.V.1.B 3.~ 5.e g P 8. ...{ 7.J.!.Q.F.^.] t.u.K.i.F.(.^.1.vXjXvXzXvXzXvXzXvXmXmXmXmXbXzXmXzXvXzXvX",
"hXsXfXfXfXfXpXpXtX0X7X>X=XZ.C.V.M.Z.b 0.2.h { O. .}.u.u.^ S $.y.D.X.K y O O & ] F.^.(.3.zXvXzXvXzXvXzXvXvXvXmXmXnXmXmXmXvXmXvXzX",
"hXsXfXsXeXeXaXpXrXqX7X>X=X#XB.m.M.V.< 3.2.~ X. .I & t H 6.5 ) i.y.) J }.1 :./ T t.I.^.3.vXzXvXzXzXvXvXmXvXvXvXvXnXnXzXzXzXvXmXzX",
"hXfXfXfXfXfXeXeXrX9X,X;X=X#XC.V.M.C.z.j.3...T y ;X1 :.4.S K ) S.R.S.T ) 8.' X.y.S.T.).e.mXB.jXzXvXvXzXzXvXmXzXbXmXzXmXmXvXzXvXzX",
"hXfXfXsXsXpXtXtXeX7X7X;X=X#XC.V.n.C.m.3.3.| D F _ I ' D ~ ] ' #.i.L.i.y.y.i.i.i.F.Y.P.}.F.6.yXmXzXzXzXmXnXnXnXzXmXmXmXzXzXzXvXzX",
"fXfXdXaXpXsXtXtXqX7X7X>X=X%XC.n.n.C.V.n 0.` ) T R ' ' ^ ' ` ` i.R.u.E.E._.E._._.E.T.(.(.!.#.T.mXzXmXzXzXnXzXzXmXnXnXvXzXmXzXzXvX",
"fXhXdXsXsXpXtXrXqX0X,X:X=X%XZ.V.M.V.+Xq.2.{ | X.$.$.$.u.y.I 6.L.].E.6.R./.[.E.[._./.^.Y.F.F.p.zXbXzXmXzXnXnXnXnXzXzXmXbXzXvXvXzX",
"jXfXfXsXaXpXtXrXrX0X<X5X=X%X+XV.V.<.D 3 5.5.` r.y.i.U.p.i.' 6.L./.~.R.8X4X[.`.[._.Q.).B.#.E.@.bXmXzXzXzXjXnXnXnXzXmXzXmXvXvXzXvX",
"fXhXfXdXaXpXpXtXrX0X<X>X=X%XZ.C.V.D A V 0.5.6.t.u.i././.9.9.1 9.J.. $.[.8XXXXX[.Q.T.Y.j.{.`.#.mXzXbXbXbXzXzXzXnXzXmXzXvXzXvXzXvX",
"hXfXfXdXsXpXiXtXqX9X7X>X=X%XZ.C.n.K T V e.4./ u.t.U./.|.T.i.@.T $.E.@.J. X XXX[.~.Q.Q.h._./.u.jXzXzXzXzXbXzXnXzXmXzXvXzXvXzXvXzX",
"hXfXfXdXsXpXyXtXrX9X7X>X=X%X+XC.V.J H 3 0.4.6.} u.U._..XI.y.' G.{.Q.R.J.!. X`.[.'.Q.(.8.E.) K.bXzXzXzXzXzXbXzXbXjXmXvXvXvXzXvXjX",
"hXfXdXdXsXpXpXtXrX7X7X>X=X$XZ.n.v.) R 4 U 2._ o.u.T.~.R.y.$.| y.K.I.J.R.!.!.`.[.E.Q.Y.5.!.L.h.zXzXzXzXbXmXzXzXbXzXmXzXvXzXzXvXzX",
"fXfXfXdXsXpXpXeXrX9X1X,X=X$X+XC.n.B./ D W 3.<.' u.D.I.F.7.] R R /.#.+.E.F.Q.~.!.Q.W.Y.~ A.I.(.zXlXlXlXbXbXbXbXzXzXjXzXbXbXzXzXbX",
"fXfXdXdXsXpXpXpXrX9X7X>X;X#XOXC.n.m.K A 4 <.<.{ 6.A.y.A.` ..Y R Y E #.R S G.W.E.I.I.Q.#X].Q.zXjXlXlXlXgXlXlXzXbXmXmXzXzXzXzXzXzX",
"hXfXfXdXaXaXpXrXrXqX<X:X;X$XC.n.n.n.2.( S y <.( ..7.O.d.` C C Z +.p.r.r.^ I.W.!.W.T.W.gXjXzXbXgXlXlXlXbXbXlXzXzXzXbXmXzXzXlXzXzX",
"fXfXfXdXaXaXpXpXrX0X<X,X;X$XC.n.n.n.V.( T 3 3.W ` O.7.G.8.C +.p.4Xp.r.E H.'.Q.W.F.Q.j.gXgXxXxXxXlXlXlXlXlXzXzXzXjXzXzXzXlXbXzXzX",
"hXfXfXaXpXaXtXtXrX0X9X>X;X$XC.m.n.l.n.~ I OX<.! ` o.o.d.O...K J r.r.y.P.H.~.H.H.G.W.h.hXjXzXgXbXgXbXlXlXbXbXlXlXlXbXzXlXlXlXjXlX",
"fXfXfXdXaXaXpXpXrX0X9X,X;X%XOXm.n.n.n.n.n.z.v.2.~ [ O.d.d.)  .| E 6.y.I.I.H.H.W.I.j.hXhXhXzXbXgXgXbXgXbXgXlXbXlXzXzXzXlXlXlXlXjX",
"fXfXdXaXaXaXpXtXrXrX9X<X>X%X+Xm.n.n.m.n.b.l.l.1.! ~ o.o.X.| X.A.r./.T.E.I.G.Q.H.P.j.hXxXgXgXxXzXgXbXbXgXbXbXlXbXzXzXlXlXlXlXjXlX",
"dXhXdXaXaXpXpXtXtX0X9X<X:X=X$Xm.m.n.v.b.b.l.l.l.Q W ` o.O.) X.O././.|.).I.!.I.W.h.gXhXhXxXxXgXzXbXgXlXbXgXlXbXlXlXlXlXlXlXlXlXlX",
"dXfXdXdXaXiXiXiXiXwX9X1X:X;X@XOXm.m.b.b.l.l.l.l.1.Q I _ o.o.O.O.S.Q.W.I.).W.g.f.B.gXgXgXgXxXxXgXlXbXgXbXgXgXxXxXxXxXMXhXxXhXxXhX",
"fXdXdXdXaXaXiXiXtXuX0X1X,X;X*X@XOXm.m.b.l.c.c.k.<.Q G G W o.7.d.7.f.S.P.P.d.d.h.f.gXgXgXgXhXxXxXgXbXbXgXbXgXxXxXxXxXxXgXhXMXfXMX",
"dXdXdXdXaXiXiXiXtXwX0X1X,X:X;X@XOXN.m.c.c.c.l.l.2.P m G G G ` o.7. .d.7.[ h [ g.P.hXgXgXgXxXgXgXbXgXlXgXgXbXbXlXlXxXxXhXgXkXMXfX",
"fXdXdXaXaXdXiXiXtXtX0X0X1X>X:X*XOXOXN.m.c.c.c.c.2.W P F F A A A A H H F L o.f.P.P.gXgXgXgXgXxXhXgXbXgXlXbXbXgXgXlXgXgXMXgXfXMXgX",
"dXfXdXaXaXaXiXiXiXtXwX0X1X,X;X*X@X@XoXm.c.c.l.k 4.W H H F F F F F H / O.f.g.g.P.h.xXgXxXgXxXgXxXbXgXbXgXbXgXbXgXgXkXMXgXgXgXgXMX",
"dXfXdXdXaXiXdXiXiXtX0X2X1X,X:X*X@XOXC.C.b.l.;.k ~ ( | ` W W ( o.O.I.Q.I.P.Y.G.P.G.p hXgXxXgXhXxXgXlXgXgXlXgXgXbXMXgXhXkXMXhXhXfX",
"dXdXdXdXdXdXiXiXtXuXwX9X2X,X:X*X*XOXOXm.b.>.:.g ~ / ` ..` ` ( o.P.]..XW.g.g.D.G.d.X v gXgXgXzXgXlXbXgXbXlXbXgXgXgXgXfXgXhXMXgXgX",
"dXfXdXdXaXiXiXiXtXtXtX0X1X<X-X*X@XOXOXOX=.1.d 4 I ( | ..` ` ( ` 7.).W.f.P.g.G.D.f.Q 9 dXgXgXgXxXgXgXgXgXgXgXbXgXgXgXMXgXgXgXhXgX",
"dXdXdXdXdXaXpXiXtXtXwX0X2X<X-X;X@X@XN.n.=.2X4 2 / ( [ o.| ` ` | } f.7.g.f.g.G.A.7.f.U w hXhXgXxXxXgXgXgXgXzXzXjXgXgXgXgXgXgXgXgX",
"aXaXdXdXaXaXpXiXiXtXrX2X1X<X:X*X$X#XC.&.N <X4 2 L ( | o.| ` ` [ 7.O.P.P.f.A.G.d.6.} O 7 x.hXgXgXgXxXgXgXgXzXhXjXMXgXhXhXgXgXgXgX",
"aXdXdXaXaXaXiXtXuXwX0X0X<X:X;X;Xk.u t a z &X-.5 L ( | | o.| ` | d.A.D.G.d.G.d.d.f.( C . &.c 7.hXxXhXhXgXzXgXjXhXhXhXkXMXgXgXgXgX",
"aXaXaXaXiXiXiXiXrX0XwX1X<X,XB *.* u r ,.,.=.k.F L ` o.o.d...} 6.g.Y.W.Q.G.G.d.d.7._ _ l w.u 7 8.B.j.hXhXhXgXjXhXhXhXhXhXhXhXgXgX",
"aXaXdXiXyXiXtXiXrXwX*X# : 7 6 q.# c &.a.z z a N L ( o.d.O.O...o.G.Y.W.G.O.A.A.d.g.` H 7 u ,.6 6 q oXrXeXj.x.jXhXgXgXgXgXgXhXgXgX",
"uXaXaXiXtXtX:X5X-.5X1X+Xm.&.a 3Xa   x.z x z oX=.W O.7.d.d.G.g.f.d.A.A.A.A.A.O.D.S. .3 &.w.*.&.6 7 = ;Xv.u w.w.,X*XxXgXgXgXgXhXgX",
"tXtXiXiX#X=X,.-.q = # a &.i a uXi -Xk.z x p oXoX@ : D.A.G.A.P.I.Q.P.F.O.%.%. ./ T ^ 6 8 >.1.q :.6 6 * 6 q c @ 9X@X7 9 hXhXhXhXhX",
"tXtXuXk.v 7 * : u c r u k &.# 0 *X=X-XuX3XoX3X&X@ 7 % ^ ^ )  .W.].).] %.I.F.X.G.g.0Xx.tXx.2X! 3.h.6 : r = ;.x.0 k r 5X>.uXhXhXhX"
};
