/* XPM */
static char *a78e0bc27ea84751e936e1cc331af480rxgiVXqyq0G6u4F0[] = {
/* columns rows colors chars-per-pixel */
"64 64 232 2 ",
"   c #030204",
".  c #0B0A0B",
"X  c #120E0E",
"o  c #0E0C13",
"O  c #110F13",
"+  c #150F16",
"@  c #151215",
"#  c #14131A",
"$  c #1B1619",
"%  c #1C191D",
"&  c #25191B",
"*  c #171622",
"=  c #1D1A22",
"-  c #1E1C2C",
";  c #231D23",
":  c #281922",
">  c #211E2E",
",  c #211E32",
"<  c #24222C",
"1  c #2A2328",
"2  c #34252B",
"3  c #242134",
"4  c #2D2934",
"5  c #262439",
"6  c #29263C",
"7  c #2C293E",
"8  c #372D36",
"9  c #3B3036",
"0  c #3D323C",
"q  c #551716",
"w  c #49363A",
"e  c #553638",
"r  c #733233",
"t  c #2B2641",
"y  c #2E2A41",
"u  c #312D44",
"i  c #342F48",
"p  c #383347",
"a  c #393956",
"s  c #443745",
"d  c #433944",
"f  c #4A3C4B",
"g  c #583B43",
"h  c #4A3D52",
"j  c #3E4360",
"k  c #53414D",
"l  c #58434A",
"z  c #4C4357",
"x  c #534454",
"c  c #514853",
"v  c #584759",
"b  c #5B4B5B",
"n  c #67454A",
"m  c #764548",
"M  c #674A57",
"N  c #724F5A",
"B  c #6B535C",
"V  c #7C5359",
"C  c #514E67",
"Z  c #5B4B63",
"A  c #5B4D68",
"S  c #614F67",
"D  c #695569",
"F  c #765968",
"G  c #6A5E77",
"H  c #765C76",
"J  c #77647A",
"K  c #95384E",
"L  c #C2365B",
"P  c #8B484E",
"I  c #845458",
"U  c #93545A",
"Y  c #A74C5C",
"T  c #895A66",
"R  c #975D66",
"E  c #8D5F73",
"W  c #AA5666",
"Q  c #B75E75",
"!  c #8D616C",
"~  c #99646B",
"^  c #8D6475",
"/  c #886679",
"(  c #966675",
")  c #9C6974",
"_  c #93697B",
"`  c #9D6D7B",
"'  c #9D707D",
"]  c #A5656D",
"[  c #A46C74",
"{  c #AA6B77",
"}  c #A36D7B",
"|  c #B86979",
" . c #A5727D",
".. c #AA7378",
"X. c #AA737C",
"o. c #B3747C",
"O. c #B6787E",
"+. c #C84B72",
"@. c #C66177",
"#. c #5C6080",
"$. c #7A6781",
"%. c #766B91",
"&. c #8B6E88",
"*. c #976D83",
"=. c #9C7388",
"-. c #A76E80",
";. c #BA6C81",
":. c #A47484",
">. c #AB7583",
",. c #AD7986",
"<. c #A6768B",
"1. c #AC7A8C",
"2. c #B77584",
"3. c #B47B83",
"4. c #BD7C84",
"5. c #B37C8C",
"6. c #BB7D8B",
"7. c #A57C96",
"8. c #AD7D92",
"9. c #B57D94",
"0. c #987FA1",
"q. c #D0698C",
"w. c #C6788A",
"e. c #D27899",
"r. c #8D819A",
"t. c #BA828B",
"y. c #BE828B",
"u. c #B58294",
"i. c #BA8494",
"p. c #BD8A95",
"a. c #B6859A",
"s. c #BA849A",
"d. c #B78A99",
"f. c #B6889B",
"g. c #BC8A9B",
"h. c #8B81A6",
"j. c #9485AA",
"k. c #9585AC",
"l. c #9987AD",
"z. c #9A89AE",
"x. c #9B8BB3",
"c. c #998DB8",
"v. c #9E8FB8",
"b. c #AD8AA9",
"n. c #BC8CA2",
"m. c #BA89A5",
"M. c #BE92A8",
"N. c #A48EB4",
"B. c #A393B8",
"V. c #A393BC",
"C. c #C2838C",
"Z. c #C6878D",
"A. c #C48491",
"S. c #CC8593",
"D. c #C48B94",
"F. c #CA8C95",
"G. c #C48499",
"H. c #C28C9A",
"J. c #CC8D9C",
"K. c #D38A9B",
"L. c #CD9095",
"P. c #C4919D",
"I. c #CC929D",
"U. c #D1939D",
"Y. c #C28CA3",
"T. c #C78BA7",
"R. c #CC8EA2",
"E. c #D58DA3",
"W. c #DC8FA8",
"Q. c #C493A4",
"!. c #CC94A3",
"~. c #C394AB",
"^. c #CB97A8",
"/. c #CB99AC",
"(. c #D394A3",
"). c #D399A5",
"_. c #D694A8",
"`. c #DB94AB",
"'. c #D39BAB",
"]. c #D99CAC",
"[. c #CA97B3",
"{. c #CA9CB1",
"}. c #D99CB2",
"|. c #E192AA",
" X c #E296B6",
".X c #D9A0AE",
"XX c #DBA3B3",
"oX c #D8A5B6",
"OX c #DCA4BA",
"+X c #E2A6BB",
"@X c #9596C4",
"#X c #A595C1",
"$X c #AB9BC4",
"%X c #AB9CC7",
"&X c #B49FC6",
"*X c #AEA0CB",
"=X c #B2A3CC",
"-X c #B5A6D2",
";X c #B8A7D3",
":X c #B6A9D4",
">X c #B9AAD6",
",X c #BBADDA",
"<X c #BEB1DD",
"1X c #BFB3E1",
"2X c #C9ABD4",
"3X c #C0B3DF",
"4X c #C3B6E2",
"5X c #C6B9E5",
"6X c #C9BBE6",
"7X c #C6BAE9",
"8X c #CBBEEA",
"9X c #CEC2ED",
"0X c #D1C2EE",
"qX c #D7C8E8",
"wX c #CEC2F0",
"eX c #D3C6F2",
"rX c #D5C9F5",
"tX c #D9CCF6",
"yX c #DACEF9",
"uX c #DED2F5",
"iX c #DDD2FC",
"pX c #E1D5FE",
"aX c #E1D6FE",
"sX c #E2D8FD",
"dX c #E2D9FE",
"fX c #E4D9FD",
"gX c #E5D9FD",
"hX c #E5DAFD",
"jX c #E4D8FE",
"kX c #E5D9FF",
"lX c #E6DAFE",
"zX c #E7DCFE",
/* pixels */
"tXtXtXiXiXiXiXiXaXiXaXiXiXtXiXiXiXiXtXiXiXdXaXdXfXfXaXaXaXfXfXdXaXfXfXfXfXdXdXfXfXzXfXdXfXdXdXfXfXfXdXfXaXdXgXgXaXaXaXfXaXaXgXaX",
"tXtXiXiXiXiXiXiXaXdXaXaXiXiXaXiXaXiXiXiXaXdXaXdXdXaXaXaXaXfXdXdXaXaXdXfXdXdXfXdXzXfXdXdXfXfXdXdXdXfXfXdXgXgXgXdXaXdXgXaXaXfXaXpX",
"tXtXtXiXiXiXiXiXiXaXaXaXiXiXaXiXiXiXiXiXdXfXdXfXdXdXfXaXaXaXfXdXfXaXfXfXfXdXfXdXzXfXfXfXfXzXfXfXfXfXfXfXdXgXgXgXfXfXfXdXaXaXaXaX",
"tXiXtXiXiXiXiXaXaXaXaXaXiXiXiXaXiXiXtXiXaXfXdXdXfXfXdXfXdXdXfXdXfXdXdXfXfXfXfXdXfXfXfXfXfXfXfXfXdXfXfXfXgXgXgXgXfXfXfXfXgXgXgXaX",
"tXiXyXiXyXiXiXdXaXaXaXaXiXiXiXaXaXiXtXiXaXdXdXdXfXdXdXdXfXfXfXfXfXdXdXfXfXfXfXfXfXfXfXfXfXzXfXfXfXfXzXfXfXfXgXzXgXgXgXaXgXgXgXpX",
"yXyXyXiXiXiXiXdXaXaXaXaXaXiXaXaXaXiXiXiXdXfXfXfXfXaXdXfXfXdXfXzXfXfXdXzXfXfXfXhXzXzXfXzXfXfXzXfXfXfXzXfXfXfXzXfXfXgXgXgXgXaXgXpX",
"yXyXyXyXiXiXiXdXaXaXaXaXiXiXiXiXiXiXiXiXfXfXfXfXfXfXfXaXfXdXfXfXfXhXfXfXfXdXfXzXzXfXzXfXfXdXzXzXfXfXfXzXfXfXzXfXfXgXgXgXgXgXaXpX",
"iXyXiXiXiXiXdXiXaXaXaXaXaXiXiXiXiXaXyXiXaXdXdXdXdXaXfXdXdXdXfXfXfXfXfXdXfXfXdXzXfXfXfXfXfXfXfXfXfXzXzXfXfXzXfXzXgXgXgXgXgXgXpXpX",
"tXiXtXiXiXaXiXdXaXaXaXaXaXiXiXiXiXyXyXyXiXiXdXaXaXdXfXzXdXzXqXfXuXuXhXdXdXfXfXdXzXzXzXzXfXfXfXzXlXlXlXzXgXgXlXlXfXfXzXgXgXgXgXpX",
"iXiXiXiXiXiXiXiXaXaXaXaXiXtXiXaXyXyXyXyXiXdXdXiXiXfX8X$.F J F b 8 9 f 9XdXdXdXzXdXzXzXfXzXfXfXzXgXgXgXgXgXlXlXlXfXfXfXfXgXgXgXgX",
"iXtXiXiXiXaXiXdXaXaXaXaXiXtXiXiXiXrXtXyXdXiXiXdXC M D s 9 b G p G A & G & uXzXzXzXdXfXzXfXfXfXzXgXzXlXlXgXzXlXlXzXfXfXzXaXgXgXgX",
"tXiXiXiXiXiXiXiXaXiXiXiXiXtXiXtXyXtXeXyXiXyXdX9 M M d Z < . * f c D w x b d B qXuXzXdXzXzXzXfXfXzXzXgXzXlXgXzXlXzXfXzXfXfXgXgXpX",
"iXiXiXiXiXiXiXiXiXiXiXiXtXtXtXiXyXrXeXeXB.c l H 1 0 4   H S x Z c . 4 Z f x d p 4 r.zXfXfXzXfXzXzXlXlXlXlXlXzXlXlXlXlXgXzXgXgXgX",
"tXiXtXiXiXiXiXiXiXiXiXiXtXtXrXtXrXeX9XeXM k M c z $.B b s k H B b D 1 b z %.G v F hXfXzXfXfXfXzXzXgXgXzXzXzXlXlXlXlXlXgXgXzXfXgX",
"tXiXyXiXiXtXiXiXiXiXiXtXrXeXrXrXeXeXqX-XB S k b w 1 $ 1 = . > Z C C d A h . 4 c c J zXfXfXfXfXfXzXgXzXzXlXlXzXlXlXlXgXzXgXfXgXgX",
"yXyXtXiXiXiXtXiXtXtXtXtXrXeXeXeXeX9X5XD 9 ; % 1 @ . . @ + O $ 4 c < O % . # c 4 D M w sXzXfXzXzXgXgXgXzXlXlXzXlXlXlXzXzXfXaXgXgX",
"yXyXyXyXyXyXtXyXyXtXtXrXqXeX8X0X8X8X5Xk 9 1 % X . . o X @ X O # $ ; # = @ < d 4 A v 9 0XzXzXfXzXgXgXfXzXzXlXlXzXzXlXlXlXlXlXlXgX",
"tXyXiXyXyXyXtXyXtXrXeXeXeX8X8X8X8X8XB.v ; ; X X O $ @ $ ; $ : & = d Z & @ @ C 1 k H s $.fXfXfXzXgXgXzXzXlXlXlXzXzXlXlXlXlXlXlXgX",
"tXiXyXtXyXrXtXtXtXrXrXeX8X8X6X6X3X2XS d 9 @ ; @ p : 9 s w N M g n ^ F N N l k G b G v h fXfXfXfXzXfXzXzXlXlXlXgXzXlXlXzXgXgXgXgX",
"tXtXyXtXtXtXrXtXrXeX0X0X8X6X6X5X3X4X9 k 0 0 % 1 2 N T <.u.9.9.R T R A.3.y.>.l T w D H A fXzXzXfXfXgXzXgXlXlXlXzXlXlXlXlXgXzXgXgX",
"tXtXtXtXtXrXrXrXrX0X0X8X6X3X<X3X,X<Xg k n u.=.=.>.6.H.R.J.T.T.^.{ { y.J.I.[ C.n e n A b iXiXhXdXfXzXzXfXzXfXzXzXlXzXgXgXzXgXlXlX",
"8XtXtXrXrXrXeXeX0XqX8X6X5X<X>X>X-X=Xf f _ <. .,.y.A.!.(.^._.}.'.).}.J.'.).U.D.D.H.u.D A 0.gXhXhXzXfXfXfXzXzXfXzXlXgXzXlXlXgXgXgX",
"tXtXtXrXtXeXeX8X9X6X5X5X3X>X;X-X=XV.s f =.:.>.3.C.F.!.).'.'..XOXOXOXXX).U.(.F.H.p.H./ S J gXgXfXzXfXzXgXfXfXzXzXzXlXlXlXlXlXlXgX",
"yX8XrXrXrXtXrX8X9X5X6X3X,X;X$X&XV.z.0 k (  .X.O.A.J.!.).).U.oX).OXXX(.(.U.U.Z.F.D.T.T D Z gXfXzXfXgXgXgXfXzXfXzXzXlXlXlXlXlXlXgX",
"tX8XiXtXtXeX0X8X8X6X2X3X>X=X#XV.V.N.k l *.' ..O.y.y.U.I.I.I.'.].U.].S.).S.L.L.L.Z.P.=.H Z fXfXfXgXzXgXzXlXlXlXlXzXzXlXlXlXlXlXlX",
"8XtX8XtXeXeX0X6X6X6X3X2X-X&XV.N.B.z.9 B :.[ X.O.4.Z.L.I.).U.(.K.U.).].K.U.U.I.L.C.P.Q.&.v fXfXzXgXfXgXgXlXlXlXlXzXzXgXgXlXlXlXlX",
"tXtXtX8XeX0X8X6X7X4X1X;X=X$XN.x.z.z.0 F :.[ ..O.y.y.D.F.I.(..X.X.X].+X).).!.Z.!.D.H.^./ h fXfXzXgXgXgXfXgXgXgXgXlXlXlXlXgXgXlXgX",
"8X8XtXtX0X0X0X8X7X3X,X;X*X$Xc.c.x.l.f H *.) { 2.y.Z.H.D.^.oXOXXXXXXX.X/.u.! e F l p.Q.H M fXfXfXgXzXgXgXgXgXlXgXlXlXlXlXlXgXzXgX",
"tXtX8XtX8XtX8X6X4X2X;X;X&X#XN.k.z.z.x B *._ X.o.y.y.6.!.J.!.U.!.H.~ 2 2 / ~.M.a.` P.~.H D zXgXzXgXaXgXgXgXzXgXgXlXlXlXlXlXlXlXlX",
"tX8XtXtXeX8X8X6X4X3X;X-X%X#Xx.k.z.k.l.M =.( ! g M g M / m ) w..XH.O.w.U =.b.,.H.!.p.M.*.E Y S.[.gXgXgXgXgXlXgXlXlXlXzXlXlXlXgXgX",
"tXtXtX8X8X8X8X8X4X1X;X;X&XN.c.c.z.z.z.v =.&.w V a.H.H.[ { ~ 4.S.U.D.G.5X& h &Xm D.I.H.a.A.W.K.@.zXgXgXgXgXlXlXlXlXlXlXlXlXlXzXgX",
"8X8X8XtXeX8X8X8X4X3X;X*X&X#Xx.0.x.k.k.h 7.*.( ..F O : 0.s.T O.W.K.H.W ;.2X2XX.w.'.^.!.H.E.W. X|._.gXfXgXgXlXlXlXlXlXlXlXlXlXlXlX",
"rX8XeXeX0X8X8X8X3X3X;X=X%X#Xx.l.z.8.~ l.u.( [ m x.& : 7XR _ 2.E.(.S.D.G.[.!.H.(.).!.!.!.p.].+X X|.zXzXsXgXgXgXgXgXzXgXzXgXzXgXgX",
"eXeXeX0X8X8X8X4X3X,X>X*X&X#Xx.l.z.P @.P 0.[ ] R P U ;.G.T ] w.`.`.J.U._.!.).).'..X.X!.n.p.@.|.w.|.zXfXfXgXgXgXgXgXzXzXgXgXgXgXgX",
"rXeXeXeXeX8X6X4X3X>X>X=X%X#Xx.x.z.| P U =.' 3.3.{ O.4.2.o.] ;._.`.J.).]..X].OX}.].].Q.Q.g. Xe.S.qXfXfXfXfXzXgXzXgXgXzXgXgXgXgXgX",
"rXeXeXeX0X8X8X4X3X>X;X&X%XV.x.x.x.q.[ I u.:.t.t.Z.F.J.C...R w.`.`.(.G.].+XXX+XXX}.].!.~.H.}.w.w.zXfXfXfXfXfXfXfXgXgXzXgXgXgXgXgX",
"rXrXeX8X9X8X6X4X4X>X;X=X$XV.N.k.z.Y ;.q *.<.5.w.S.K.F.F.O.~ G.}. X`.E.oX+XXX].W.K.(.H.~.Z.Q K.|.fXzXfXfXfXfXfXgXzXgXgXzXgXgXgXgX",
"rXeXrXrXeX8X8X4X3X>X-X=X$XV.x.l.x.W w.P =.7.o.w.C.S.E.J.I e.w.E.}.R._.R.XX].XXK.F.F.J.Y. X+X).6XfXfXfXfXfXfXgXzXgXgXzXgXzXgXgXgX",
"rXrXeXeX0X8X8X4X4X>X=X=X$XV.c.x.l.O.;.r ^ =.X.4.w.Z.J._.r 5.q 6.6.T.G.XXOXXXXXU._.I.H.f.].`.].aXfXfXfXzXfXzXfXgXgXgXzXgXgXgXgXgX",
"rXeXrXeXeX8X6X4X,X>X=X*X$XV.x.l.l.l.Y | r *.} 4.O.C.I.).Q.*.K Y.T.s.s.).]..XU.(.I.!.H.a.S.Q.aXfXfXfXfXfXzXfXfXzXgXgXgXgXgXgXgXgX",
"tXrXrX8X8X8X8X6X3X,X-X&X$XV.x.k.l.l.} R m 7.*.-.6.C.J.Z.C.5.( { [.s.s.9.i.!.).L.I.P.p.M.aXaXaXdXfXaXfXfXfXfXfXfXgXgXzXgXgXgXgXgX",
"rXeXeXrXrX8X6X6X3X>X-X*X#XN.x.l.l.l.0.} U 7._ } ..4.C.y.3.X.{ e.W.e.e._.X.p.p.I.L.P.p.2XaXaXaXfXfXfXfXfXzXfXfXfXgXgXgXzXzXgXgXgX",
"tXrX8XrX8X8X6X4X3X,X>X*X%XV.l.k.j.k.j.j.N.l._ ` } t.t.R ~ 6.| Q q.q.| Q Q O.3.I.P.Q.p.dXiXaXgXfXfXfXfXfXfXfXfXzXgXzXgXgXgXgXgXgX",
"rXrXtX8XeX8X6X4X3X,X;X*X$XV.l.k.j.l.j.j.k.l.*.=. .O.~ ..~ U K L +.+.q.q.q.I.D.D.I.H.H.iXaXaXdXfXdXfXfXfXfXzXzXfXgXgXgXgXgXgXgXgX",
"rXtXeXeXeX8X8X6X4X,X>X=X#XV.c.l.l.j.j.j.l.l._ _ _ X.] 3.C.o.Y @.q.q.q.w.J.J.D.Z.H.n.M.iXdXdXaXfXfXdXdXfXfXfXdXfXfXfXaXgXfXgXgXgX",
"tXeXeXeX8XeX8X6X4X3X>X=X&X#XV.x.l.j.j.h.l.k.0.^ _ ) { o.6.2.-.~ R ] >.t.F.D.6.D.H.M.P.iXiXaXaXdXdXfXfXdXfXfXfXfXfXfXfXgXgXgXpXgX",
"rXeXeXeXeX8X8X6X4X,X>X-X%X#XV.l.l.k.k.j.k.k.j.E &.) ..X.O.o.6.C. .w.T.T.!.I.I.H.H.Q.P.aXaXaXaXaXfXdXfXfXfXfXfXfXfXfXgXgXgXfXgXgX",
"rXrXrXrX8X8X8X4X4X,X>X;X*X#X#Xv.x.k.j.h.k.k.z.T _ ^ ' ..3.6.y.4.w.T.Q e.T.H.Q.5.M.Q.P.iXaXdXaXaXaXaXfXdXzXzXfXfXfXfXgXdXfXaXgXaX",
"rXrXrXwXwX9X9X5X5X<X,X:X%X%X#XB.c.z.j.h.z.k.k.^ I m T ` ..p.,.] ~ <.` >.=.T t.J H.^.H.aXaXaXdXdXdXfXdXfXaXdXgXgXgXgXzXdXdXfXfXdX",
"rXrXeXeXwX9X8X5X5X4X<X:X*X*X#XB.c.j.z.h.k.k.k.^ T I V M ! <.V ` U ` } ! ^ M F H.^.).P.aXaXdXdXdXaXaXaXdXgXgXdXdXdXfXdXfXdXfXdXdX",
"rXrXrXeXwXwX8X8X5X<X<X:X=X*X*X@XV.c.c.j.j.z.h.( R R I m e e w l : D w 4 g 1 H.!.).^.H.aXaXaXdXdXdXaXgXaXfXfXaXfXdXfXdXfXdXfXaXfX",
"rXrXrXeXwXwX8X8X5X5X<X,X;X*X$X%XV.c.j.j.h.z.k._ ~ ] R I I I e n + e 1 w O.D.H.!.'.^.H.aXaXaXiXdXgXaXfXaXaXfXdXfXdXaXfXfXaXfXaXdX",
"rXrXrXrXwXwX8X7X5X5X<X<X;X=X*X*XV.c.z.j.j.z.  ' ....[ ~ I ! T R ) ..5.i.Q.Q.P.Q.'./.Q.c.dXiXdXdXaXaXdXaXfXaXgXdXfXaXfXdXfXfXdXaX",
"rXrXrXwXrXwX9X9X7X5X<X<X;X=X*X#X#Xc.z.j.z.7   ' ' t.,.} ~ ~ ` 1.9.T.[././.H.H.I.[./.M.p # iXiXdXaXdXdXaXdXdXdXdXfXdXaXfXfXaXaXaX",
"rXrXrXrXwXrX9X9X5X5X1X<X:X-X*X*X#XV.c.j.- , m )  .,.1.5.-.U ` 1.m.[.~.Q.P.p.g./.{./.p.g.~ # @XdXdXaXdXdXdXaXfXdXfXdXfXaXaXaXaXaX",
"rXrXrXwXwXwX9X7X7X1X<X<X:X=X*X#X#XB.> , , = m ~ X.t.u.u.<.` } <.a.Y.[.Q.n.p.P././.!.g.f.p.,.3 j iXdXaXdXaXaXaXdXfXaXfXaXaXaXaXaX",
"rXrXrXrXwX9X9X7X5X5X<X<X:X*X*X@X- 3 - 3 , * V ) X.5.s.g.p.*.>.7.s.9.m.T.Q.p.H././.g.p.t.p.p.4 u a a dXiXfXaXaXaXdXaXaXaXaXaXaXaX",
"rXwXrXwXwX9X7X7X5X1X<X<X:X*Xi > < 5 - , * * 0 ) >.5.9.s.s.>.<.8.m.m.m.Y.~.i.~.{./.p.p.p.Q.Q.3 y 6 y y C tXaXaXaXaXaXaXaXaXaXaXaX",
"rXwXrX9X9X7X7X1X<X<X,X<Xy y 5 > - , - , , # * `  .,.u.n.9.3.:.1.s.T.T.~.g.p.Q.{.~.p.p.u.g.M.4 7 y 6 6 6 u u tXaXaXaXaXaXaXaXaXpX",
"rXwXwX9X9X7X5X1X<X<X%.5 3 3 > < , - - - , * # p :.,.u.g.m.9.:.>.9.m.T.m.u.n.~.Q.p.p.g.i.M.! 4 6 y 6 6 6 6 6 7 a uXaXaXaXiXaXiXpX",
"wX9X9X7X7X7X1X1X@X6 , , > > 3 3 , > , , - , # o J 1.u.a.n.a.:.<.<.` >.,.d.Q.~.g.p.Q.~.p.n., 5 i y 5 6 5 , t u u a #.dXiXaXiXaXiX",
"wX9X9X7X1X7X@X6 i > 3 > 3 3 3 3 , , 3 - - - , * # $.u.u.n.g.1.<.1.5.u.u.d.M.~.g.n.~.~.f.3 3 3 y 6 5 6 6 6 t y y y y t #XiXaXiXaX",
"7X7X7X7Xh.i 3 i 5 3 > > 3 , , 5 - , 5 , , , , * # o 6 u.8.n.g.<.:.<.,.8.a.~.~.g.~.M.m.5 , 5 i 6 5 6 7 6 6 , 5 6 y 6 6 7 , tXaXiX",
"7X5X:X5 < < 7 > > > - 3 , > , 3 , , , , , , * , - * o * f.a.M.m.1.<.7.1.d.M.M.a.M.&.- 3 3 y 6 y 6 5 6 6 6 6 , , 6 6 6 3 6 7 t 8X"
};
