/* XPM */
static char *db4f23ae0afb4dc4896aecb1efcac203ARYoKjlaWWBzazu5[] = {
/* columns rows colors chars-per-pixel */
"64 64 229 2 ",
"   c #050506",
".  c #0A0A0D",
"X  c #0D0C12",
"o  c #110C11",
"O  c #131215",
"+  c #19161B",
"@  c #1B1A24",
"#  c #211E28",
"$  c #2D1F2D",
"%  c #1F2136",
"&  c #27232C",
"*  c #382829",
"=  c #252434",
"-  c #2A2534",
";  c #27243A",
":  c #2A263C",
">  c #2C293D",
",  c #372C36",
"<  c #37313C",
"1  c #4A2D2C",
"2  c #552C2F",
"3  c #493438",
"4  c #593838",
"5  c #653738",
"6  c #653B3D",
"7  c #7C3735",
"8  c #68403F",
"9  c #2E2A41",
"0  c #312D44",
"q  c #332E48",
"w  c #353146",
"e  c #3D3341",
"r  c #35314A",
"t  c #39344C",
"y  c #3B3652",
"u  c #3E3955",
"i  c #443746",
"p  c #573D46",
"a  c #473D54",
"s  c #423C5A",
"d  c #683E43",
"f  c #763C40",
"g  c #594247",
"h  c #484155",
"j  c #584659",
"k  c #6D4344",
"l  c #674549",
"z  c #744546",
"x  c #784649",
"c  c #754B4B",
"v  c #7C4C4C",
"b  c #6C4C52",
"n  c #684C5C",
"m  c #744D55",
"M  c #7A4D51",
"N  c #755155",
"B  c #7E5355",
"V  c #79555A",
"C  c #4A4464",
"Z  c #554A6A",
"A  c #584B72",
"S  c #595576",
"D  c #68546C",
"F  c #795768",
"G  c #7B5C74",
"H  c #973A4D",
"J  c #8C4747",
"K  c #834D4A",
"L  c #964B4A",
"P  c #91514C",
"I  c #864F53",
"U  c #835454",
"Y  c #8C5355",
"T  c #83565B",
"R  c #8B555A",
"E  c #845A5B",
"W  c #8B5B5D",
"Q  c #945555",
"!  c #9A5656",
"~  c #93565A",
"^  c #935B5C",
"/  c #9D5B5C",
"(  c #A94F56",
")  c #A65956",
"_  c #A35C5B",
"`  c #96605C",
"'  c #A7615F",
"]  c #B4675E",
"[  c #855964",
"{  c #8D5E61",
"}  c #985D65",
"|  c #835B71",
" . c #9B5F71",
".. c #AC4D69",
"X. c #A65E65",
"o. c #B45B6B",
"O. c #8B6368",
"+. c #936164",
"@. c #9A666A",
"#. c #9A646D",
"$. c #926A6E",
"%. c #886479",
"&. c #956974",
"*. c #9C7278",
"=. c #A76565",
"-. c #AB6565",
";. c #A3646C",
":. c #A46B6D",
">. c #AC696C",
",. c #B36462",
"<. c #B86967",
"1. c #B46C6C",
"2. c #BB6D6B",
"3. c #B6706E",
"4. c #BE716E",
"5. c #A46C75",
"6. c #AB6D73",
"7. c #A66D7A",
"8. c #B66B73",
"9. c #B36E72",
"0. c #A6757A",
"q. c #AC747C",
"w. c #B57173",
"e. c #BA7374",
"r. c #B5757B",
"t. c #BC7679",
"y. c #BD797B",
"u. c #C44C70",
"i. c #C45875",
"p. c #C2736D",
"a. c #C46C77",
"s. c #C37474",
"d. c #C47879",
"f. c #C27B7D",
"g. c #CB7C7D",
"h. c #D07B7E",
"j. c #C9807E",
"k. c #696186",
"l. c #7D7396",
"z. c #896D8D",
"x. c #996C82",
"c. c #9C7588",
"v. c #A37284",
"b. c #A87587",
"n. c #AA7B83",
"m. c #B47C87",
"M. c #BD7C83",
"N. c #B27D95",
"B. c #CB6C85",
"V. c #C37D81",
"C. c #CC7E83",
"Z. c #CA7989",
"A. c #D37D90",
"S. c #D179A4",
"D. c #B48188",
"F. c #AC8294",
"G. c #BB8893",
"H. c #978AAF",
"J. c #9D8EB3",
"K. c #A78CA9",
"L. c #AD93A8",
"P. c #A191B6",
"I. c #A494BB",
"U. c #A897BD",
"Y. c #B295B3",
"T. c #C58182",
"R. c #CC8283",
"E. c #C7858B",
"W. c #CA848B",
"Q. c #CD8A8D",
"!. c #D18284",
"~. c #D3868A",
"^. c #D38A8D",
"/. c #C58A94",
"(. c #CB8C93",
"). c #C78A98",
"_. c #D58D93",
"`. c #D68A97",
"'. c #CC9097",
"]. c #D49093",
"[. c #D4929B",
"{. c #D9949B",
"}. c #D8969C",
"|. c #C888A1",
" X c #CC91A9",
".X c #D997A5",
"XX c #DC9BAC",
"oX c #DB9DB4",
"OX c #E298AE",
"+X c #DDA2AE",
"@X c #E2A5BA",
"#X c #AB9BC3",
"$X c #AB9CC7",
"%X c #B09FC9",
"&X c #9DA0CF",
"*X c #B3A2CC",
"=X c #BCA8CB",
"-X c #B7A7D2",
";X c #BAAAD4",
":X c #BDAEDA",
">X c #BEB1DC",
",X c #CDAECB",
"<X c #C4B2D4",
"1X c #C0B2DE",
"2X c #E4ACC4",
"3X c #C4B6E2",
"4X c #C6BAE5",
"5X c #C9BAE6",
"6X c #CBBEEA",
"7X c #D0C1D3",
"8X c #CDC1ED",
"9X c #D0C3EE",
"0X c #D8CAEA",
"qX c #CFC4F0",
"wX c #D2C6F1",
"eX c #D6C9F4",
"rX c #D9CDF6",
"tX c #D6CCF8",
"yX c #DACEF9",
"uX c #DDD2FB",
"iX c #E1D6FE",
"pX c #E5D9FE",
"aX c #E5DBFE",
"sX c #E6DAFE",
"dX c #E5DCFE",
"fX c #E7DCFE",
"gX c #E8DDFE",
"hX c #E9DEFE",
"jX c #F2EAFD",
/* pixels */
"iXuXiXuXuXiXiXiXiXiXuXpXpXpXuXdXgXpXpXiXiXpXpXpXuXuXdXdXgXdXdXdXdXpXpXdXpXpXdXpXpXdXfXpXpXfXfXpXsXpXpXpXpXpXpXpXpXpXpXpXpXpXpXpX",
"uXiXiXiXiXiXrXiXiXiXpXpXpXpXpXdXpXpXpXpXiXpXdXdXuXuXdXdXdXdXgXpXdXdXdXpXdXdXpXdXpXpXfXpXpXpXsXsXpXpXgXpXfXgXpXfXpXgXpXpXpXpXdXpX",
"uXiXuXuXiXiXuXiXiXiXpXpXiXdXpXdXpXdXdXiXpXpXpXuXiXuXdXdXgXpXfXgXpXpXdXgXpXpXfXpXfXfXpXpXfXfXpXfXgXgXdXpXpXgXfXdXpXfXpXsXpXpXpXpX",
"uXiXuXiXiXuXiXiXiXiXpXiXpXpXdXpXpXpXpXpXiXdXpXpXpXiXpXdXpXgXgXgXdXdXdXgXgXfXfXgXpXfXgXgXfXfXfXfXpXpXgXpXfXfXpXpXpXfXfXfXpXpXpXpX",
"iXiXiXiXuXiXiXiXiXiXiXiXpXpXdXpXgXpXpXpXiXpXpXpXiXiXpXdXgXdXgXpXdXpXdXgXgXgXgXgXpXdXfXgXgXpXgXgXgXgXdXpXgXgXgXpXfXsXsXsXpXpXfXpX",
"uXiXiXuXiXiXiXiXiXpXiXpXpXpXpXpXpXgXpXpXiXpXdXpXdXuXdXdXgXgXfXpXgXgXdXpXgXgXgXdXgXgXpXfXpXpXpXgXgXfXpXpXgXgXgXdXfXsXsXsXpXfXfXpX",
"iXiXrXiXrXiXiXiXpXiXpXpXpXpXpXdXgXpXpXpXpXpXpXiXpXpXpXpXdXdXgXdXpXgXpXdXgXgXfXgXgXgXgXfXgXgXgXfXgXgXpXgXgXgXgXdXfXfXfXfXfXpXpXpX",
"iXiXiXiXiXiXiXiXpXiXpXpXpXpXdXpXgXpXgXpXiXpXpXiXiXuXpXdXdXdXpXpXpXgXgXfXpXgXgXpXdXpXgXgXgXgXgXgXgXgXpXfXdXgXgXgXfXfXsXsXsXfXpXpX",
"iXiXiXiXiXiXiXpXiXiXpXpXpXpXdXpXpXpXpXpXiXpXpXiXiXuXdXdXdXdXdXdXdXgXgXdXdXdXdXgXdXgXgXgXgXgXgXgXgXgXgXgXgXgXgXgXfXfXfXfXfXsXsXfX",
"uXuXiXiXiXiXiXiXiXpXpXpXpXdXpXdXpXpXpXpXiXiXpXiXuXuXpXdXdXdX0X0XgXgXgXdXdXdXhXhXgXdXgXdXgXgXgXgXgXgXfXgXfXgXgXgXfXfXfXfXfXsXfXpX",
"iXiXiXiXiXiXiXiXpXpXpXpXpXpXpXpXpXpXpXiXuXiXiXiXuXyXdX<XD.G.D.D.&.*.9XdXdXdXdXhXdXgXgXdXgXdXgXgXgXgXfXgXfXgXgXgXsXgXgXgXfXfXsXsX",
"iXuXiXiXiXiXiXiXiXpXpXpXpXpXpXdXiXpXpXiXiXiXiXiXuXyXc.E $.*.0.n.n.0.0.5.hXdXhXhXgXgXgXdXdXgXgXpXgXgXfXgXgXhXgXgXfXfXgXgXfXsXsXsX",
"iXiXiXiXiXiXiXiXpXiXiXpXpXiXpXiXiXpXiXiXiXiXiXiXuXL.+.@.D.0.D.0.D.D.G.G.n.rXgXhXdXpXgXgXdXgXdXgXgXgXgXgXgXgXgXgXgXgXgXgXfXhXfXsX",
"iXiXiXiXiXiXiXiXpXiXpXpXiXiXiXiXiXpXiXrX0XrXrXrXyXv.q.&.*.D.n.n././.(.G.D.:.=XdXdXgXdXgXgXgXgXgXgXgXgXgXgXgXgXgXgXfXfXfXfXfXsXsX",
"iXiXiXiXiXuXuXiXiXiXiXiXiXpXiXiXiXrXuXuXrXrXrXrX*.O.G.W 0.8 ` 8 c U R U O.k 0.D.dXdXdXgXdXgXgXgXgXgXfXgXgXgXgXgXgXgXgXfXgXgXsXsX",
"dXiXiXiXuXiXiXiXiXiXiXiXuXrXiXyXiXrXrXuXeXeXrXF v +.D.B E 8 g < 1 * j * g $.6 @.O.b.gXgXgXgXgXpXgXgXgXgXgXgXgXgXgXgXgXgXgXfXfXsX",
"iXiXiXiXuXiXuXuXiXiXiXiXrXrXuXrXuXrXrXeX0Xq.*.O.0.8 b 8 g N > O   & O S C O l N $.0.c L.gXdXgXdXpXgXdXgXhXhXhXdXhXhXgXgXgXgXgXdX",
"iXiXiXiXrXiXrXuXiXiXrXrXrXiXuXrXuX0XeX8 V &.W n.N g g . @ < & o k.C O O   & h O.B U c $.+.jXdXdXgXpXgXgXhXdXhXgXgXgXgXdXgXdXpXdX",
"iXuXiXiXiXiXiXrXiXrXuXrXrXrXrXeXeXL.c N E $.b $.6   < S < Z & < & & # h N * O . g 8 K +.W z ,XdXgXgXgXfXdXhXdXhXhXhXgXgXgXgXgXgX",
"uXuXrXuXrXrXrXrXrXrXrXrX0XrX0XrX8 4 k $.V $.W c   O O S t < $.V g h g 3 $.:.=.* . c B k E v E 7XgXgXgXgXhXhXhXhXhXhXhXgXgXgXgXpX",
"uXiXrXiXiXuXrX0XrXrXrXeXeXwX8Xm c c v E $.8 U . . j + O 3.P T.T.:.D.M.j.j.j.2.] P . P $.0.N k W jXgXgXpXgXgXgXhXgXgXgXgXdXgXpXgX",
"iXuXuXuXrXrXrXrXeXrX0XeXwX8X8Xk E W V E *.D.< O . * =.] e.j.j.^.T.].Q.].j.~.d.<.J L   Y / { B W B gXdXgXgXgXgXgXgXgXgXgXfXgXfXgX",
"uXrXuXrXrXrXrXeXeXeXwX9X9X8XL.B U 4 ` n.O.@ @ g J P ) <.s.!.g.].].].'.].j.~.j.p.] ) k , V M E B W $.pXgXgXgXgXgXgXgXgXgXgXpXgXgX",
"iXrXuXrXrXrXrXwX9XwX9X9X8X8Xk c 1 c q.v V @ & 8 L J ) 2.j.!.^.}.+X^.+X].}.^.j.g.p.] ] # O.{ W z c l gXdXgXgXgXgXgXgXgXgXgXgXgXgX",
"uXiXrXrXrXrX0XeX6XeX6X6X5X5Xx U c U P :.+ O - v J ) ] 2.p.j.^.}.].}.+X+X}.}.R.j.s.<.,.a   #.:.O.-.@.jXdXgXgXgXgXgXhXgXgXdXgXgXgX",
"uXrXrXrXrXeX6XeX6X6X6X6X5X5XI U c c U { & & , P ) _ ] 2.p.~.].{.+X+XXXXX}.~.j.j.s.8.2.n s E z B B N &.gXgXdXgXgXhXgXgXgXgXgXgXgX",
"rXiXiX0XrXeXyX6X6X6X6X5X3X5Xl R E Y 3.@ o & 4 / ^ ] <.p.s.^.^.{.XX@X+X+X}.~.j.h.s.e.8.| < O U 6 ` v x gXdXgXgXpXgXgXgXgXgXgXgXdX",
"rXrXrXeXeXeXeX6X6X5X5X5X1X3X[ x U B V + > = N ;.' =.j.j.~.`..X.XXX@X@XXXOX}.^.j.f.V.e.} < X c c Y r.[ gXgXfXgXpXgXgXgXgXgXfXgXgX",
"rXrXrXeXeX6X6X6X5X5X3X1X;X<Xm [ 6.U B . & < #.;./ >.w.E./..XoX2X@X2X2X2X+X@X.X_.(.V.M.m.u   ` E K k U gXgXfXgXgXgXpXgXpXpXgXpXgX",
"rXrXrXeXeXeX6X6X5X5X1X1X;X-X[ } E c 3 O + < #.;.6.b g Z i p  XoXXX2X2X2XXXZ.G.c.| M.M.m.j o v c k W U gXgXpXgXpXgXgXgXgXgXgXdXgX",
"rXeXeXeX6X6X6X5X5X3X1X;X-X=XI T E U `   & , ;.7.b #.M.|.d V x.X. XOX.XW.{ j Z < F n '.m.h @ l c K U v gXgXgXgXpXdXgXfXgXgXpXgXfX",
"rXrXeXeXeX6X6X6X,X3X;X*X%X%XT } B Y U   , n 6.5.b.t.Z.'.|.W.8.8.`.`.`.V.,.R.oXOX.X/.b.G.Z . k Y K c L.gXgXpXgXpXfXgXgXdXgXgXgXgX",
"uX6X6XyX6X6X6X3X:X3X-X%X#XU.J.5 T B 6 7 : c.>.=.} Y O 2 * , 1.=.Z.oX}.d.-.- , p ~ (././.h i z z U E dXdXfXfXfXsXfXfXgXgXfXfXfXsX",
"yXyXyXyXyX6X5X3X3X<X%X#XU.#XI.m B M o.( , b.8.f.8.>.8.} X.>.r.( C.}.^.e.8.} G S.f e.]./.i s.z I { c.pXaXsXsXsXsXfXhXsXgXfXfXgXfX",
"yXtXyX6X6X6X5X1X<X*X%XU.I.P.#X{ R W 8.H & b.r.8.4.e.W.W. X|.,.s.h.!.!.A.d. XoXW.(.y.]./.n A.5 I } pXpXpXsXsXsXfXsXfXfXfXfXsXfXfX",
"yXeX6XyX6X6X5X3X>X-X%X#XI.I.P.Y.x 4 i.! f b.7.r.f.C.W.R.R.!.<.o.s.C.~.g.s.!. X X].Q./.).F OXL } c.gXgXdXsXsXsXfXfXfXgXfXgXfXfXgX",
"yXrXeX6X6X6X6X5X1X-X%X#XI.P.J.P.c 3 B.L 2 c.b.8.f.R.g.C.!.C.f.8.h.~.Z.Q._.!.!.!.^.].'./.[ `.6 O.dXdXpXpXdXfXsXfXfXfXfXfXfXfXfXfX",
"yXrXeXeXyX6X6X5X1X-X-X%X#XJ.P.P.P.V o.>.p v.v.8.e.g.g.!._.XX_ s.C..X~.W.a..X}.~.Q.].]. Xx..XW pXpXdXpXpXfXpXsXfXhXpXfXgXfXfXsXsX",
"yXyXyXeX6X6X6X3X1X;X-X%X#XP.#XP.J.J.K.) n x.v.9.8.p.g.^.+XXXV.t.Z.`..X~.{.@X.X_._.Q.).G.| v.uXpXpXpXdXdXpXsXsXfXfXfXfXfXfXfXfXfX",
"yXyXyXeXeX6X6X3X1X1X<X%X#X#XJ.P.P.J.I.H D v.7.6.2.s.C.`.@X.XB.a.7 8.8.[.C.@X2X}.^.`.).|.#.uXuXpXpXdXpXpXfXfXsXfXpXfXfXfXfXfXsXfX",
"yXyXyXwXwXwX9X5X3X>X;X-X#X$XI.J.J.P.U.L p &.v.b.1.s.R.{.XX!.a.e.m. XG.Z.C.`.2X.X].Q.(.G.5.iXpXpXpXpXpXiXsXsXpXgXfXfXgXpXfXfXsXfX",
"uXyXyXrXwXwXwX5X4X3X:X-X%X#X#XP.J.J.P.6.2 | x.6.1.4.C.^.g.C.>.x m Z.d m ~.~.~._.].^.).F.[.uXiXpXpXpXpXsXfXfXfXpXfXfXgXpXfXfXfXfX",
"uXyXyXyXeXeX9X5X5X3X3X;X%X$X#XP.I.J.P.J.I.F &.>.1.2.p.s.w.x ( B.B.S.S.B.X.Y g.^.R.E.G.z.pXuXpXpXpXgXsXsXfXsXfXgXfXfXfXpXfXpXsXsX",
"uXuXyXyXeXwXwX6X5X4X>X:X<X%X%X#XI.J.P.J.I.n |  .1.<.p.@.^ <.H H ....( ..H V.+.T.j.E.G.z.uXpXuXpXpXpXpXsXsXsXpXfXpXfXfXfXpXpXfXsX",
"uXuXyXyXyXwX6X6X6X5X4X:X;X%X$X#XP.P.J.J.P.D D [ :.1.p.>.N.H H u.u.u.i...o.o.e.T.j.5.c.tXiXpXpXpXpXpXpXpXsXpXpXfXfXfXfXfXgXfXpXpX",
"iXuXyXyXyXeXeXwX6X6X4X:X1X-X%X$XP.J.J.J.J.P.G b l ! e.4.4.,.,...S.S.S...Z.Z.f.R.t.b G uXuXpXpXpXpXpXpXfXsXsXpXfXpXsXfXpXfXpXpXfX",
"uXuXyXyXrXeXeXwX6X6X3X1X;X;X%X$X#XP.J.J.P.J.D | b } 1.3.<.8.8.8.~ v X.8.8.T.f.e.U &.*XuXpXdXdXdXsXfXpXpXsXsXsXsXfXsXpXfXfXpXfXfX",
"uXuXyXyXyXyXyX6X6X6X5X3X:X;X*X$X#XP.J.J.J.J.%.G $.Q _ 2.8.1.e.V.o.Z.V.V.E.T.T.e.6.c.<XpXuXdXpXpXsXpXfXpXsXsXsXsXsXsXpXpXfXpXpXpX",
"iXuXuXyXyXtXtXwX9X6X4X4X>X;X-X%X$XI.J.J.J.J.| | V R Q >.w.d.f.Z.oXOXXX`.(.E.y.6.5.v.5XpXpXpXpXpXsXsXiXsXpXgXdXpXpXpXpXgXpXdXpXpX",
"uXuXyXyXyXtXeXwXwX8X6X4X1X:X-X*X$XI.J.J.J.J.| F | M f Y 9.>.d.V.Z.V.W.(.R.j.:.R | m.;XpXpXpXpXiXsXsXsXsXpXpXpXgXpXdXpXpXpXpXpXpX",
"uXuXuXyXyXtXtXeXwX8X6X4X3X>X-X*X$XI.P.J.H.J.G I c j p , g V ;.f.Z.8.R.f.@.N F b 7.m.U.pXpXdXpXpXpXpXiXsXpXdXdXpXdXpXpXdXgXpXpXgX",
"uXuXuXuXtXtXeXwXwX8X6X4X3X>X-X*X$X$XI.J.J.J.G Y K 6 3 * + , p #.M.r.1.^ < + g ;.6.r.c.dXdXuXpXpXpXpXiXsXpXpXdXdXgXdXpXpXpXpXpXpX",
"uXuXyXyXyXyXtXwXqXqX8X4X3X>X-X*X%X$XP.J.J.J.%.Y Q x 5 1 * * * 4 f z 1 l 3 3 } 5.r.8.v.iXpXpXpXiXpXpXpXpXpXdXpXpXdXdXpXdXpXpXpXpX",
"uXuXuXuXyXyXwXwXqX8X6X4X3X>X:X*X%X$X#XJ.z.F F Q ! ! _ K 4 2 4 K Y ! R d p X.X.t.e.6.v.v.i uXpXpXpXpXdXpXpXpXpXpXdXuXpXpXpXpXpXdX",
"uXuXuXyXyXtXeXwXqX8X6X4X1X>X-X*X%X$XJ.n [ R m ~ ) _ / ' ! Y 6 5 5 5 x U 5.(.t.8.9.9.7.7.7.9 A u pXpXdXpXdXdXpXdXdXpXpXdXpXpXpXpX",
"yXyXyXuXyXwXtXwXqX6X4X4X1X>X-X&Xl.y q X.~ ~ K I ! _ -.-.1.w./.>.} m.b.).y.w.e.t.9.8.6.6.6.I u y Z C dXdXpXpXpXdXpXdXpXpXpXpXpXpX",
"uXuXuXtXtXtXqXqX8X4X4X4X>X:Xk.9 : t 9 @.-.) Y U Q / ' 3.3.3.3.w.8.r.w.r.t.y.d.e.w.e.w.9.e.M r t u u y q wXpXiXpXpXpXpXpXpXdXuXdX",
"tXtXuXtXtXqXqX8X8X4X4X4XH.= : % 9 0 0 ; <.' Q Q Q ' =.-.3.3.3.y.e.M.t.d.y.y.y.w.y.e.e.y.f.; t 0 s : C r C s 8XiXiXpXdXuXpXpXdXuX",
"uXtXtXeXwXwX8X8X4X4X4X9 9 9 0 9 : > : ; j.1.=.Q / ' ' :.3.3.w.3.8.e.T.D.s.e.e.w.e.e.y.V.W.0 r 0 y > y q r C s A &XpXpXpXdXdXdXdX",
"tXtXtXeXwXqX8X8X4Xs u r % 9 9 9 = 9 w > # y.3.' =.=.' =.3.3.T./.W.(.(._.T.f.e.e.y.M.E.Q.E.q 0 0 q 9 q r t r s t s A S pXpXuXdXuX",
"eXtXqXwX8X8X6X#X; > 0 > 9 % 9 9 = = > 9 > W.y.3.-.>.=.-.1.3.V.f.V.V.y.f.T.e.e.f.f.E.(.'.i q r q q 9 > r 0 0 q q 0 u a Z Z uXpXpX",
"wXqXqXqX8X*XZ % t r 0 > 9 0 > % > : > ; > - j.e.>.1.3.-.1.e.y.f.f.d.f.j.f.y.t.f.Q.W.W.E.q 9 9 9 9 0 > 0 9 : 0 0 > C t s u Z A tX",
"qXqX8X1XS > ; w w w 9 ; = = = ; @ ; > > t > = j.3.y.e.3.4.1.y.j.T.T.D.j.y.d.T.T.f.V.g.> 0 q u 9 > 0 ; > w > > y > 0 0 t y s y C ",
"8X4Xy r > 0 9 w w ; > = = % > > w 9 = : ; q > : j.w.e.j.y.y.d.D.E.j.j.j.E.W.f.y.4.d.: 0 t 9 0 > 9 9 9 9 0 > ; t 9 0 w 0 r q u 0 "
};
