/* XPM */
static char *_e911d5d051247b898d2de26c34ebb41AMM1P8BRa8ZzR0kD[] = {
/* columns rows colors chars-per-pixel */
"64 64 234 2 ",
"   c #050506",
".  c #0D0D15",
"X  c #121015",
"o  c #14121C",
"O  c #1B181B",
"+  c #24191B",
"@  c #341E1F",
"#  c #091A20",
"$  c #1B1A28",
"%  c #221D22",
"&  c #1A2F39",
"*  c #2B2123",
"=  c #2C262B",
"-  c #37282C",
";  c #282438",
":  c #392C33",
">  c #3C3239",
",  c #5A1F2B",
"<  c #442222",
"1  c #452E33",
"2  c #433236",
"3  c #43343B",
"4  c #49363C",
"5  c #57373C",
"6  c #6B333C",
"7  c #1C3A46",
"8  c #2F3544",
"9  c #423541",
"0  c #4B3B44",
"q  c #4A3C49",
"w  c #573E45",
"e  c #563D51",
"r  c #643A47",
"t  c #6F3C4F",
"y  c #1E4959",
"u  c #23424E",
"i  c #234657",
"p  c #234D5D",
"a  c #1E5567",
"s  c #244E60",
"d  c #284F61",
"f  c #235265",
"g  c #24566A",
"h  c #25586B",
"j  c #235D71",
"k  c #236174",
"l  c #236579",
"z  c #286A7D",
"x  c #32697E",
"c  c #4F4048",
"v  c #584244",
"b  c #54434C",
"n  c #5C434C",
"m  c #594755",
"M  c #65454C",
"N  c #77444C",
"B  c #644B54",
"V  c #6A4A55",
"C  c #634C5B",
"Z  c #774C57",
"A  c #69515A",
"S  c #71525A",
"D  c #5C4D65",
"F  c #654E62",
"G  c #6B5667",
"H  c #745766",
"J  c #6A5874",
"K  c #765D75",
"L  c #706073",
"P  c #7B6476",
"I  c #893750",
"U  c #874656",
"Y  c #8F4E5C",
"T  c #9B4667",
"R  c #8B5363",
"E  c #865769",
"W  c #97596B",
"Q  c #8A5C75",
"!  c #9A5B77",
"~  c #AE5170",
"^  c #A95D7D",
"/  c #81646D",
"(  c #876477",
")  c #97647C",
"_  c #A9677C",
"`  c #B5647C",
"'  c #C15B7B",
"]  c #2B6D82",
"[  c #2E7387",
"{  c #35748B",
"}  c #766585",
"|  c #955C82",
" . c #BF5B88",
".. c #876883",
"X. c #996A87",
"o. c #92738F",
"O. c #897496",
"+. c #83769B",
"@. c #85789C",
"#. c #8A7A9D",
"$. c #977798",
"%. c #A86988",
"&. c #B66887",
"*. c #A8748C",
"=. c #B3728D",
"-. c #BA718D",
";. c #A96892",
":. c #B06E97",
">. c #AA7695",
",. c #B47593",
"<. c #B97697",
"1. c #B37994",
"2. c #B47B9C",
"3. c #BB7B9C",
"4. c #857CA3",
"5. c #8B7DA2",
"6. c #927EA1",
"7. c #B66DA4",
"8. c #AD7DA3",
"9. c #B57BA3",
"0. c #BC7CA4",
"q. c #BD7EAA",
"w. c #C85684",
"e. c #D15D8F",
"r. c #C66489",
"t. c #CE6B99",
"y. c #C77796",
"u. c #CF7196",
"i. c #C37C9C",
"p. c #C37DA2",
"a. c #CC7DA2",
"s. c #C77CA8",
"d. c #D17BA4",
"f. c #6C8DB6",
"g. c #A5819E",
"h. c #BE809B",
"j. c #8E81A5",
"k. c #9382A5",
"l. c #9485AC",
"z. c #9987AB",
"x. c #868FB6",
"c. c #9288B4",
"v. c #9B8CB4",
"b. c #9B8DB9",
"n. c #B584A7",
"m. c #BC82A4",
"M. c #BE82AA",
"N. c #AE87B1",
"B. c #A392BC",
"V. c #C4819D",
"C. c #D1819F",
"Z. c #C382A4",
"A. c #CB84A4",
"S. c #C88BA5",
"D. c #C484AB",
"F. c #CB84AB",
"G. c #C58BAB",
"H. c #CC8AAB",
"J. c #D384AB",
"K. c #D887A8",
"L. c #D28BAD",
"P. c #C491AD",
"I. c #CC92AE",
"U. c #D291AC",
"Y. c #C689B5",
"T. c #CC8EB3",
"R. c #D987B2",
"E. c #D48CB2",
"W. c #DB8DB3",
"Q. c #CC93B5",
"!. c #CC95B8",
"~. c #D493B3",
"^. c #D597B7",
"/. c #DB95B5",
"(. c #DC94BA",
"). c #D49BBC",
"_. c #DB9ABD",
"`. c #E38CB1",
"'. c #E196BB",
"]. c #E299BC",
"[. c #9C8FC4",
"{. c #A99AC5",
"}. c #AB9AC5",
"|. c #B09FC9",
" X c #9AACDC",
".X c #ABA1CC",
"XX c #B5A6CB",
"oX c #B1A2CC",
"OX c #B4A6D2",
"+X c #B5A9D5",
"@X c #B9AAD6",
"#X c #B4ABD8",
"$X c #BBAEDA",
"%X c #BDB1DE",
"&X c #B7AEE2",
"*X c #BEB5E4",
"=X c #CD8DC0",
"-X c #CB94C1",
";X c #D49DC3",
":X c #D799C6",
">X c #DD9CC2",
",X c #E19CC2",
"<X c #E09CCA",
"1X c #D5A2C5",
"2X c #CDAFD6",
"3X c #E3A2C9",
"4X c #E3A9D5",
"5X c #E8B2DE",
"6X c #C2B6E2",
"7X c #C5B9E6",
"8X c #C8B7E8",
"9X c #C5BCEA",
"0X c #CABEEA",
"qX c #C2BCF1",
"wX c #C4C1EF",
"eX c #CDC1ED",
"rX c #D0C3EF",
"tX c #CDC4F2",
"yX c #D1C6F2",
"uX c #D4CAF6",
"iX c #D9CCF7",
"pX c #D5CCF9",
"aX c #D9CEF9",
"sX c #DCD3FD",
"dX c #DDD5FE",
"fX c #DFD7FE",
"gX c #DFD8FF",
"hX c #E0D5FE",
"jX c #E1D6FE",
"kX c #E2D7FF",
"lX c #E0D8FD",
"zX c #E2D8FD",
"xX c #E2DAFE",
"cX c #E4DAFE",
/* pixels */
"uXiXiXaXiXaXaXaXaXaXsXaXsXaXsXhXsXhXsXsXsXsXhXhXlXdXsXsXsXsXsXpXpXdXxXlXlXlXlXgXlXdXlXlXdXdXhXhXxXhXhXhXhXlXhXhXcXhXhXhXlXhXhXhX",
"uXiXiXiXaXaXaXaXsXaXaXaXaXaXaXhXsXsXhXsXsXhXdXgXdXdXaXsXsXdXsXpXpXgXlXxXxXlXlXdXlXdXdXlXhXdXhXlXlXlXhXlXhXhXhXcXhXhXhXhXhXhXhXhX",
"uXiXaXaXaXaXaXaXaXaXsXsXaXaXaXsXdXsXhXdXdXdXlXhXsXsXaXsXsXsXdXpXpXgXgXxXlXxXlXhXhXlXlXhXlXdXlXlXcXcXhXlXhXlXkXkXcXhXhXcXcXhXhXhX",
"uXaXaXpXaXaXsXaXaXsXaXsXsXsXaXsXdXdXsXdXdXdXdXlXdXsXaXsXdXdXdXsXpXgXlXlXxXlXlXlXlXdXlXcXlXhXhXhXhXxXhXlXhXcXcXkXhXlXhXcXhXhXhXhX",
"uXiXaXaXaXaXaXaXaXaXaXhXaXsXaXsXdXdXdXdXdXdXlXhXlXsXaXsXdXsXdXsXiXlXcXxXlXlXxXcXhXlXlXlXxXhXxXhXcXlXhXxXcXlXxXcXhXhXlXhXhXkXhXhX",
"iXiXuXaXaXaXhXaXaXsXsXaXsXaXsXsXdXdXdXdXhXhXlXcXdXsXsXsXdXsXsXsXaXlXcXlXcXdXxXhXlXlXlXlXcXhXlXlXlXlXhXhXcXlXxXcXcXcXcXhXhXhXkXkX",
"iXiXpXaXaXsXsXaXsXsXaXhXaXsXsXsXdXdXhXdXlXhXlXhXlXdXdXsXdXsXsXpXaXgXlXxXlXcXxXlXlXlXlXlXcXlXlXhXxXcXlXlXhXhXcXhXhXcXcXhXcXkXhXkX",
"iXaXaXaXsXaXaXsXaXaXsXsXsXsXsXaXdXdXhXhXdXlXlXhXgXdXsXsXdXdXdXsXdXdXcXxXxXlXlXlXlXlXlXlXlXlXlXlXhXxXcXlXhXcXlXcXcXhXcXhXcXkXkXkX",
"aXaXaXaXsXsXaXsXsXsXsXsXsXsXsXsXsXdXsXdXdXdXhXlXhXdXsXdXdXdXdXpXaXlXlXlXxXxXxXlXlXlXxXlXlXcXlXhXlXlXcXxXlXcXcXcXxXxXcXhXcXxXhXhX",
"aXaXaXaXaXsXaXaXsXaXsXaXaXaXsXsXdXdXdXdXgXgXhXhXhXhXsXdXdXdXdXdXaXdXxXxXxXlXlXlXlXlXxXxXlXlXcXlXlXlXlXxXcXlXcXxXxXhXcXhXlXcXxXhX",
"aXaXaXaXsXsXaXsXaXaXsXsXsXsXsXsXsXsXsXsXdXdXhXdXdXsXuXuXdXcXiXdXdXlXlXxXxXxXlXgXlXlXxXcXcXlXcXxXxXlXdXlXcXlXcXxXcXcXcXlXcXcXcXhX",
"aXaXaXaXaXsXsXaXsXaXaXsXpXsXsXsXaXsXsXsXdXdXsXsXiXO...B F M M P @XlXlXxXlXlXlXdXlXlXlXcXcXlXlXxXlXxXlXcXlXcXcXcXcXcXlXlXcXcXcXxX",
"pXaXaXaXsXaXsXsXsXaXpXsXsXsXsXpXiXaXaXiXiXuXaXv.F H C 2 c 3 m v H oXeXaXlXlXgXgXlXlXhXcXlXxXxXcXxXcXlXxXcXcXcXxXlXcXlXhXcXcXhXcX",
"aXaXaXsXsXaXhXaXpXsXsXsXsXsXpXpXiXiXiXeXXXG 4 m 0 C m 3 0 c c - b e A G G O.yXdXlXlXhXlXxXxXxXlXcXlXxXxXxXcXcXcXxXcXlXcXcXcXcXhX",
"aXaXsXaXsXsXsXaXsXsXiXpXpXaXpXuXrXrXeXwXv 3 > = : > > b L > m 4 b = H G G b m > cXlXlXlXhXxXcXcXlXxXxXcXcXcXxXcXxXcXcXcXcXcXcXlX",
"aXaXaXsXsXsXaXsXsXaXsXpXaXuXyXyXeXeXeXM v + % X > * 4 : c m C H b 4 c A C b 3 m K dXcXdXhXlXlXcXxXlXcXcXcXcXcXcXcXcXcXhXcXcXcXcX",
"aXsXaXaXhXaXaXaXaXaXiXiXuXyXeXeX7X6XL 4 - 0 b > % > O 3 c m 4 0 A B S A C m P > F yXlXlXhXlXcXlXlXxXcXcXlXcXcXcXcXcXcXcXcXcXcXcX",
"aXaXaXaXsXhXaXhXsXiXiXuXyXeXeX6X6X@XH 0 - X H = c 4 m C v 2 v H v B ( N - P c b O L iXhXlXlXlXcXxXxXlXxXcXcXlXxXcXcXcXcXcXcXcXcX",
"sXaXaXsXaXhXsXaXaXiXiXrXeX7X6X$XXXH : * = m C J   : G 0 4 2 v * * 4 g.1 n + A O } C 2XdXxXhXhXhXcXlXlXxXcXcXcXcXcXcXxXcXlXcXcXcX",
"aXaXaXaXaXsXsXaXiXiXrXeXeX6X$XXXP S b - * * B > * n - K 4 V n 4 ( B 1 v 1 v A 4 m > 9 rXhXxXcXcXcXcXxXcXcXcXcXcXcXcXcXcXcXcXcXcX",
"aXaXsXaXaXaXsXaXiXuXrXeX6X$XoXB.m 3 c = O H c 2 - V 5 N E Z 5 5 M N M 6 N E 4 G C 0 H G hXkXhXhXlXhXcXcXcXcXcXcXcXcXcXzXcXcXcXcX",
"aXaXaXaXaXaXsXaXiXyXeX7X6XOXoX#.G = > % % P S v *.! %.i.1.y.d.L.~.^.P.S.1.=.R Z > 3 4 8 0XcXcXhXlXcXxXxXcXcXcXcXcXcXcXcXcXcXcXcX",
"aXaXsXaXaXsXaXaXuXrXeX6X@XoXB.g.L 3 c c > G v R V -.F.F.A.W.~.W._.)._._._.I.m.>.Z 3 9 F m kXkXcXhXcXcXcXcXcXcXcXzXcXcXzXcXcXcXcX",
"aXaXsXaXaXsXsXaXuXrXeX6X@X}.v.l.B - = c v + N h.5 Z.H.E.E.~.]._._._._.>X1X;X).Q.2.e > : } aXcXxXcXcXhXcXcXcXcXcXcXcXcXcXcXzXcXcX",
"aXaXaXaXsXsXaXaXiX0X0X8XOX}.z.z.A 2 c m + @ 9.m.p.F.T.E.(.:X,X<X].,X3X1X]._.).1X2.Z e P q iXxXhXzXcXcXzXcXcXcXcXcXcXcXcXcXcXcXcX",
"iXiXaXaXaXaXaXiX0X0X8X2XXXB.z.6.C D G : 2 X.h.m.Z.A.L.E.~.(.>X,X,X_.]./._._.).;XQ.E 0 K 3 yXhXhXzXcXcXcXcXcXcXcXcXcXcXcXcXcXcXcX",
"iXaXiXaXaXaXiXiXyXeX8X$X|.v.z.z.0 c A * V =.m.Z.A.H.E.L.W.(._._.>X_./._._._._.1X^.*./ 0 m 4.hXlXzXcXcXcXcXcXcXcXcXcXcXcXcXcXcXcX",
"iXaXiXaXaXaXaXiXyXeX8X*XXXb.k.k.4 C = 5 Q 2.9.m.F.H.E.L.(.>X<X_.,X,X].'._.>X].).~.m.N ..F xXhXhXcXcXcXcXcXcXcXcXcXcXcXcXcXcXcXcX",
"iXaXaXiXiXaXaXiXyXrX7X2XoXB.l.k.L b 0 v ! 1.3.D.D.T.W.W.:X4X4X5X5X4X3X>X1XE.>X^.!.G.U V t jXjXjXzXcXzXcXcXzXcXcXcXcXcXcXcXcXcXcX",
"aXaXaXiXsXsXaXiXyXrX7X6XXX{.z.k.k...> r >.>.8.=.&.D.s.J.R.>X>X4X,X'._.W V e W ) !.!.( ( I cXzXjXzXcXzXcXcXzXcXzXcXcXcXcXcXzXcXcX",
"aXaXaXaXaXaXhXiXyXrX8X6X+X{.v.k.j.L 0 G 8.8.E R < r I t %.y.L.,XW.r.T i.Y.!.<.<.>.!.N t K jXjXjXzXcXcXzXcXcXcXcXcXcXcXcXcXcXcXzX",
"aXiXaXaXaXaXaXaXiXrX0X6X@X|.b.z.k.P n H 8.X.Z y.2.| %.! %.w.y.>XW.Z.p.T ;.T ^.T.q.>XZ K $.jXjXjXzXcXcXcXcXcXcXcXcXcXcXcXcXcXcXcX",
"aXsXaXaXaXsXaXaXyXrX0X7X$XoXB.l.#.O.2 n 8.X.;.R ..n Z [.Y.! i.(.K.<.r.v.} [.t u.P.1XP.w $.dXlXcXhXlXcXkXcXcXcXcXcXcXcXcXcXcXcXcX",
"iXaXaXaXaXiXsXaXiXrX0X6X6XoXB.z.y.^ w r 8.2.,.E 7.D J 7X&.X.y.`.A.S.~ 8Xe $X` F.^.1X1XS U K.iXcXcXcXcXcXkXcXjXcXcXcXcXcXcXcXcXcX",
"iXaXaXsXaXaXaXaXaXrX0X8X@X|.[.v.~ -.U M n.2.Z.m.7.Y.=Xs.;.&.t.W.K.E.s.Y.=X).-X^.).).1X` K.K./.lXzXzXcXcXkXzXcXcXcXcXcXcXcXcXcXzX",
"iXaXaXsXaXaXaXaXiXyX0X6X@X|.b.l.&.&.&.S n.9.Z.D.Y.!.=XY.&.^ r.d.L.K.W.-X:X:X:X>X).;X1XV.'.W.K.lXcXzXcXzXzXzXcXcXcXcXcXcXcXcXcXcX",
"iXaXaXaXsXaXaXaXiXrX0X8XOX}.v.l.y.-._ E 8.9.p.s.s.(.F.F.1.^ d.R.d.R.(.(._.:X'._._.^.1Xy.].].5XcXzXcXcXzXkXcXcXkXcXcXcXcXzXcXcXcX",
"aXaXaXaXaXaXaXaXuXrX0X7XOX{.6.6.u.-.~ ( 8.1.y.u.d.W.J.J.&.;.u.`.E.J.'.'.'.W.'.'.).).1XK.].`.hXhXcXhXcXkXkXhXcXcXcXcXcXcXcXcXzXcX",
"aXaXaXaXaXaXaXaXiXrXeX7X@X{.6.5.3.y.T U 8.1.p.y.t.R.J.W. .;.J.>XE.W./.,X'.'._.(.).).1X`.3X1XhXkXzXhXzXzXcXcXkXcXcXcXcXcXcXcXcXcX",
"iXaXaXaXsXaXaXiXiXrX0X6X@X}.k.5.#.&.T 6 N.:.3.p.d.d.R.R.` 6 &.y., ' R.<X'.'.'.(.^.!.;X/._.lXhXcXzXzXzXzXzXkXkXcXcXcXcXcXcXcXcXcX",
"pXaXaXaXaXsXaXaXuXyX0X8X@X{.z.5.#.g.8.U 2.2.2.p.A.K.K.C.&.~ a.(.R.u.K.]./.].]._.^.I.n.1X2XhXhXhXcXcXjXjXjXcXcXcXcXcXcXcXcXcXcXcX",
"pXaXpXaXaXaXaXaXuXyX0X0X6XoXb.6.#.#.n.U o.>.2.Z.H.A.d.a.t.` p.F.H.R.K.'.]././._.).P.g.1XsXzXcXhXjXjXcXcXjXcXjXzXcXcXzXcXcXiXcXcX",
"iXiXiXaXaXaXaXaXiXuXtX8X6XOX{.l.#.#.O.N...>.1.0.V.V.C.y.-.R ` a.Q.S.L./././.^.^.I.I.( lXsXhXzXsXjXzXjXcXcXjXcXcXcXcXcXcXcXcXcXcX",
"iXuXaXiXaXaXaXaXuXuXyX0X6XOX}.v.j.#.#.#...X.2.<.V.V.-._ &.w.e.t.t.u.d._ S._.^.U.P.m.%XxXdXdXhXcXjXjXjXzXjXcXcXcXcXcXcXcXzXcXcXzX",
"iXiXpXaXaXaXaXaXiXyXyX0X7X$X|.B.l.#.#.+.J $.Q &.h.V.-.T I ~ w.~ w.e.r.r.I./.I.h.m.P.aXhXgXdXdXlXhXhXzXzXjXcXjXjXzXcXjXcXzXcXzXzX",
"iXuXpXiXpXaXaXaXpXuXyX0X7X$X#X{.v.#.#.#.} X.Q %.=.V.S.V.~ ' e.t.t.w.u././.^.I.*.P.n.uXsXgXlXcXlXhXzXzXcXzXcXjXcXzXzXcXcXcXzXcXcX",
"pXuXpXiXaXaXaXaXiXuXtXtX8X*X+X{.b.j.@.+.+.>.( ;.%.i.i.i.t.t.-.&.-.S.L.~.U.U.S.m.P.*.dXaXdXsXdXlXlXzXhXcXzXcXzXzXcXcXcXcXcXcXcXjX",
"uXuXpXpXpXaXaXpXiXpXyX0X9X6X#XoX{.l.5.+.4.K X.$.*.<.V.<.Z.Z.~.(.W.K.U.U.U.U.I.) g.2XlXsXdXgXlXdXdXhXzXzXjXcXcXcXzXzXcXcXjXjXjXcX",
"uXiXuXuXpXpXpXpXpXuXuXqX0X6X&XOX{.v.4.+.+.@.Q Q Q -.3.i.i.A.J.'./././.~./.I.>.*.*.sXdXsXdXgXdXgXzXzXsXzXhXhXcXlXcXcXxXcXcXlXcXhX",
"uXyXuXiXuXpXpXpXpXpXtXtXqX0X$XOX{.b.k.+.@.@.D X.H X.1.3.A.i.C._././.).).I.P.1.n.2XsXsXsXdXdXdXdXzXdXzXdXhXcXlXlXhXlXxXlXlXlXlXcX",
"uXpXuXuXuXpXpXpXpXpXtXtXqX8X6X+X.X[.l.j.} 4.6.G Q Q Q %.,.D.y.y.L.A.V.S.*.*.*.G.2XpXsXsXdXdXdXdXdXlXdXlXlXlXlXlXxXlXlXdXlXlXlXhX",
"uXyXuXuXuXpXpXpXpXpXtXtXtX9X6X$X.X{.v.j.4.4.5.Q 2 F n H W %.2.-.1.=.X.E H / *.L.M.aXdXsXdXdXdXgXdXlXhXlXlXgXlXlXhXlXxXhXlXlXhXlX",
"yXuXuXpXuXuXpXpXpXpXpXtXeX9X9X&X#X{.[.c.@.@.+.) W Z r w 2 V V H V 5 4 w R h.K.L.!.$ qXdXdXdXdXdXlXdXgXdXlXgXdXlXlXlXlXlXlXlXlXhX",
"yXuXuXuXuXuXpXpXpXpXpXtXtX0X9X*X#X{.[.c.l.;   *.%.%.W R Y R N N U R ` ` S.I.~.H.U.O o dXdXdXdXdXdXlXlXdXgXdXlXdXgXhXhXlXlXlXdXlX",
"uXyXuXuXpXtXpXpXuXpXpXuXyXeX9X%X#X{.[.4.$     *.=.,.&.%.%.%.-.Z.^.~.^.U.I.E.L.H.P.7 ; &XdXdXdXdXhXdXlXlXdXdXlXgXdXlXlXhXlXdXlXhX",
"yXyXtXpXpXpXpXtXpXpXpXpXtXwX9X%X#X{.b.; ; &   *.-.3.<.<.>.9.m.P.).1XQ.U.H.L.R.J.D.# ; f.dXdXdXsXgXdXgXdXlXgXdXlXdXdXlXdXdXlXdXhX",
"tXtXpXtXtXpXuXuXtXpXpXpXtXtX*X*X.X[.c.h $ $ . %.-.0.s.3.2.1.3.D.H.Q.F.H.H.T.J.s.y.E ; ] aXaXsXsXsXdXdXdXdXgXdXdXdXlXdXgXdXdXlXhX",
"pXpXtXpXpXtXuXuXtXpXpXpXtXwX*X&X.Xb.j.j $ ; ; ! 1.3.Z.D.p.s.2.M.H.E.T.d.H.F.F.p.:.Q 8 [ hXhXsXsXdXdXdXdXdXlXdXgXgXdXdXdXdXdXdXdX",
"tXtXpXtXuXtXpXuXpXpXpXtXtXwXqX#X{.c.5.7 h $ $ $ %.2.Z.D.Z.Z.D.!.1X).:XT.F.H.A.3.;.r 8 { { y  XsXdXsXdXdXdXdXdXdXdXdXhXlXdXlXdXdX",
"uXtXtXpXtXpXtXpXpXtXpXpXyXwX&X#Xx.f 7 h p i X O o :.0.p.D.M.M.!.!.T.T.D.D.s.q.<. .- ; [ [ i [ a wXsXdXdXdXdXsXdXdXdXdXdXdXdXdXdX",
"tXtXpXuXpXtXpXpXyXuXyXtXwX*X.Xy h k p f f s d o X 8 7.D.0.q.Y.Y.Y.T.T.D.M.0.3.9.| ; { ] k y ] z a l dXsXsXsXsXsXdXdXsXsXdXsXsXsX",
"tXtXuXtXtXtXtXtXtXtX9X6X7Xy a a h j d u s u f h . . M.s.q.<.M.Y.Y.D.D.s.0.M.9.:.E % z j k y l [ k a k [ pXsXsXsXdXsXdXsXdXdXdXsX",
"tXtXtXtXtXtXtX9X9X9X7X{ f s f f j f g p s p u d p & o 9.q.q.M.q.s.M.<.s.q.M.p.:.e 7 k k a y ] z k j j z z ] tXdXdXsXsXsXsXsXdXdX",
"tXtXtXtXtXtX9X9X*X*X] a f a f f f h f p p i s y i 7 7 s d =Xq.M.0.s.q.0.Y.d.7.;.x l l k s j z l l j a k ] z j { j wXsXsXsXsXsXsX"
};
