/* XPM */
static char *_25bde2bbdf64b1a90d1e3efa6dd535b8X2sD3PopBg85JfQ[] = {
/* columns rows colors chars-per-pixel */
"30 30 2 1 ",
"  c None",
". c black",
/* pixels */
"                              ",
"                              ",
"                              ",
"                              ",
"                              ",
"                              ",
"                              ",
"                              ",
"              ..              ",
"            .    .            ",
"          .        .          ",
"             ....             ",
"         .  .    .  .         ",
"           .      .           ",
"        .  .  ..  .  .        ",
"        .  .  ..  .  .        ",
"           .      .           ",
"         .  .    .  .         ",
"             ....             ",
"          .        .          ",
"            .    .            ",
"              ..              ",
"                              ",
"                              ",
"                              ",
"                              ",
"                              ",
"                              ",
"                              ",
"                              "
};
