/* XPM */
static char *_ce00ccca7b8497bdd8023975286f161Bz4vJNmNLhOUfpoV[] = {
/* columns rows colors chars-per-pixel */
"64 64 58 1 ",
"  c None",
". c black",
"X c #010101",
"o c #020202",
"O c gray1",
"+ c #040404",
"@ c gray2",
"# c #060606",
"$ c #070707",
"% c gray3",
"& c #090909",
"* c gray4",
"= c #0C0C0C",
"- c gray5",
"; c #0E0E0E",
": c gray6",
"> c #111111",
", c gray7",
"< c gray8",
"1 c #151515",
"2 c gray9",
"3 c #181818",
"4 c gray10",
"5 c #1B1B1B",
"6 c #1E1E1E",
"7 c gray12",
"8 c #202020",
"9 c gray13",
"0 c #232323",
"q c gray15",
"w c #272727",
"e c gray16",
"r c #2A2A2A",
"t c #2C2C2C",
"y c gray18",
"u c #323232",
"i c gray20",
"p c #343434",
"a c gray21",
"s c #393939",
"d c #3A3A3A",
"f c gray25",
"g c gray26",
"h c gray27",
"j c #464646",
"k c gray28",
"l c #494949",
"z c gray29",
"x c gray30",
"c c gray31",
"v c gray33",
"b c gray39",
"n c #656565",
"m c #6F6F6F",
"M c #777777",
"N c gray48",
"B c #7C7C7C",
"V c #7E7E7E",
/* pixels */
"                                                                ",
"                                                                ",
"                                                                ",
"                                                                ",
"                                                                ",
"                            ++&-++++                            ",
"                        ooooo+&oooooooo+                        ",
"                     +oooooo+&ooooooooo+oo+                     ",
"                   oooooooo+oooooooooo+&ooooo                   ",
"                 ooooooooo+&ooo  ooo+++ooooooo+                 ",
"                oooooooooo             oooooooo&                ",
"               oooooooo                  ooooo&++               ",
"              ooooooo                      ooo+ooo              ",
"             oooooo                          oooooo             ",
"            oooooo                            oooooo            ",
"           oooooo                              oooooo           ",
"          oooooo                                oooooo          ",
"         oooooo                                  ooooo+         ",
"         ooooo                                    ooooo         ",
"        ooooo                                      ooooo        ",
"        ooooo                                      ooooo        ",
"       ooooo                                        ooooo       ",
"       ooooo                                        oooo+       ",
"       oooo                                          oooo       ",
"      ooooo                                          ooooo      ",
"      oooo+                                          ooooo      ",
"      ooo+                                            oooo      ",
"      oo+&                                            oooo      ",
"     +o+&o                                            oooo+     ",
"     +++oo                                            oooo+     ",
"     &&ooo                                            oooo+     ",
"     -oooo                                            oooo+     ",
"     ooooo                                            oooo&     ",
"     ooooo                                            ooo+&     ",
"     ooooo                                            oo&++     ",
"     +oooo                                            +&+o+     ",
"      oooo                                            o+oo      ",
"      oooo                                            oooo      ",
"      o+ooo                                          ooooo      ",
"      +++oo                                          ooooo      ",
"       +ooo                                         &oooo       ",
"       +oooo                                        +oooo       ",
"       +oooo                                       >ooooo       ",
"        ooooo                                     7+oooo        ",
"        ooooo                                     -ooooo        ",
"         ooooo                                   3ooooo         ",
"         +ooooo                                 9ooooo+         ",
"          &+oooo                              zw+oooo+          ",
"           oooooo>                           zw+ooooo           ",
"            oooooo1                         g7oooooo            ",
"             ooooo+>9                     vp>oooooo             ",
"              oo+&+o&1r                 cs3+oooooo              ",
"               o++oooo&>9ucnMNV   Nmbcsy3+ooooooo               ",
"                &ooooooo+-7rpgkkgkgpr7>+oooooooo                ",
"                 +ooooooooooo+&+&&++&+oooooooo&                 ",
"                   oooooooooooooooo&+ooooooo+                   ",
"                     +oooooooooooo&+oooooo+                     ",
"                        oooooooooooooooo                        ",
"                            ++++++++                            ",
"                                                                ",
"                                                                ",
"                                                                ",
"                                                                ",
"                                                                "
};
